SplineFontDB: 3.0
FontName: TaijituSerif
FullName: Taijitu Serif
FamilyName: Taijitu
Weight: Book
Copyright: Copyright (c) 2015, Gulliver Pembroke
UComments: "2015-1-23: Created with FontForge (http://fontforge.org)"
Version: 001.000
ItalicAngle: 0
UnderlinePosition: -354
UnderlineWidth: 204
Ascent: 1638
Descent: 410
InvalidEm: 0
LayerCount: 2
Layer: 0 0 "Back" 1
Layer: 1 0 "Fore" 0
XUID: [1021 275 1773992033 1378]
FSType: 0
OS2Version: 0
OS2_WeightWidthSlopeOnly: 0
OS2_UseTypoMetrics: 1
CreationTime: 1422062799
ModificationTime: 1422846638
PfmFamily: 17
TTFWeight: 400
TTFWidth: 5
LineGap: 87
VLineGap: 0
OS2TypoAscent: 1420
OS2TypoAOffset: 0
OS2TypoDescent: -442
OS2TypoDOffset: 0
OS2TypoLinegap: 307
OS2WinAscent: 1825
OS2WinAOffset: 0
OS2WinDescent: 443
OS2WinDOffset: 0
HheadAscent: 1825
HheadAOffset: 0
HheadDescent: -443
HheadDOffset: 0
OS2SubXSize: 1434
OS2SubYSize: 1331
OS2SubXOff: 0
OS2SubYOff: 293
OS2SupXSize: 1434
OS2SupYSize: 1331
OS2SupXOff: 0
OS2SupYOff: 928
OS2StrikeYSize: 102
OS2StrikeYPos: 530
OS2CapHeight: 0
OS2XHeight: 0
OS2Vendor: 'PfEd'
MarkAttachClasses: 1
DEI: 91125
LangName: 1033
Encoding: UnicodeBmp
UnicodeInterp: none
NameList: AGL For New Fonts
DisplaySize: -48
AntiAlias: 1
FitToEm: 1
WinInfo: 0 38 14
BeginPrivate: 0
EndPrivate
BeginChars: 65536 120

StartChar: uniE000
Encoding: 57344 57344 0
Width: 1479
VWidth: 0
GlyphClass: 2
Flags: HW
LayerCount: 2
Back
Fore
SplineSet
937 454 m 1
 412 454 l 1
 320 240 l 2
 297 187 286 148 286 122 c 0
 286 101 296 83 316 68 c 0
 335 52 378 42 443 37 c 1
 443 0 l 1
 16 0 l 1
 16 37 l 1
 73 47 109 60 126 76 c 0
 160 108 198 173 239 271 c 2
 716 1387 l 1
 751 1387 l 1
 1223 259 l 2
 1261 168 1296 110 1326 82 c 0
 1358 56 1401 40 1456 37 c 1
 1456 0 l 1
 921 0 l 1
 921 37 l 1
 975 40 1012 49 1030 64 c 0
 1050 79 1059 98 1059 120 c 0
 1059 149 1046 196 1019 259 c 2
 937 454 l 1
909 528 m 1
 679 1076 l 1
 443 528 l 1
 909 528 l 1
EndSplineSet
Validated: 1
EndChar

StartChar: uniE001
Encoding: 57345 57345 1
Width: 1821
VWidth: 0
GlyphClass: 2
Flags: HW
LayerCount: 2
Back
Fore
SplineSet
1027 1282 m 1
 1027 746 l 1
 1284 746 l 2
 1361 746 1415 760 1446 789 c 0
 1477 818 1496 869 1501 943 c 1
 1537 943 l 1
 1537 472 l 1
 1501 472 l 1
 1493 539 1482 584 1468 606 c 0
 1455 630 1432 648 1400 662 c 0
 1385 669 1346 673 1284 673 c 2
 1027 673 l 1
 1027 224 l 2
 1027 163 1029 127 1034 116 c 0
 1039 104 1048 94 1063 86 c 0
 1078 78 1104 74 1142 74 c 2
 1324 74 l 2
 1397 74 1453 80 1492 92 c 0
 1531 104 1569 127 1606 162 c 0
 1655 207 1695 267 1726 341 c 1
 1764 341 l 1
 1656 0 l 1
 638 0 l 1
 638 37 l 1
 689 37 l 2
 744 37 785 53 811 86 c 0
 827 107 835 158 835 239 c 2
 835 525 l 1
 439 525 l 1
 315 292 l 2
 268 204 245 146 245 119 c 0
 245 100 255 83 276 68 c 0
 296 52 338 42 402 37 c 1
 402 0 l 1
 -24 0 l 1
 -24 37 l 1
 5 38 30 44 52 56 c 0
 72 68 95 90 120 121 c 0
 145 152 176 203 214 274 c 2
 626 1045 l 2
 677 1140 703 1205 703 1238 c 0
 703 1259 694 1276 676 1288 c 0
 653 1305 605 1315 530 1319 c 1
 530 1356 l 1
 1641 1356 l 1
 1656 1058 l 1
 1622 1058 l 1
 1613 1127 1597 1179 1572 1215 c 0
 1554 1241 1528 1260 1494 1272 c 0
 1475 1279 1429 1282 1358 1282 c 2
 1027 1282 l 1
835 1282 m 1
 478 598 l 1
 835 598 l 1
 835 1282 l 1
EndSplineSet
Validated: 1
EndChar

StartChar: uniE002
Encoding: 57346 57346 2
Width: 1366
VWidth: 0
Flags: HW
LayerCount: 2
Back
Fore
SplineSet
946 692 m 1
 1040 672 1110 640 1157 596 c 0
 1222 535 1254 460 1254 371 c 0
 1254 304 1233 239 1190 178 c 0
 1147 116 1089 71 1014 42 c 0
 940 14 827 0 674 0 c 2
 34 0 l 1
 34 37 l 1
 85 37 l 2
 142 37 182 55 207 91 c 0
 222 114 230 164 230 240 c 2
 230 1116 l 2
 230 1200 220 1253 201 1275 c 0
 175 1304 136 1319 85 1319 c 2
 34 1319 l 1
 34 1356 l 1
 620 1356 l 2
 729 1356 817 1348 883 1332 c 0
 983 1308 1059 1266 1112 1204 c 0
 1165 1144 1191 1073 1191 994 c 0
 1191 926 1170 865 1129 812 c 0
 1088 758 1027 718 946 692 c 1
422 746 m 1
 447 741 475 738 506 736 c 0
 538 733 573 732 611 732 c 0
 708 732 782 742 830 764 c 0
 880 784 917 817 943 860 c 0
 969 903 982 951 982 1002 c 0
 982 1081 950 1149 885 1205 c 0
 820 1261 726 1289 602 1289 c 0
 535 1289 475 1282 422 1267 c 1
 422 746 l 1
422 98 m 1
 499 80 576 71 651 71 c 0
 772 71 864 98 927 152 c 0
 990 207 1022 274 1022 354 c 0
 1022 407 1008 457 979 506 c 0
 950 555 904 593 839 621 c 0
 774 649 694 663 599 663 c 0
 558 663 522 662 493 661 c 0
 464 660 440 657 422 654 c 1
 422 98 l 1
EndSplineSet
Validated: 1
EndChar

StartChar: uniE003
Encoding: 57347 57347 3
Width: 1176
VWidth: 0
Flags: HW
LayerCount: 2
Back
Fore
SplineSet
1009 1356 m 1
 1023 1060 l 1
 987 1060 l 1
 966 1156 933 1217 888 1243 c 0
 844 1269 765 1282 652 1282 c 2
 424 1282 l 1
 424 745 l 1
 478 745 l 2
 644 745 766 734 844 714 c 0
 922 692 986 652 1034 593 c 0
 1084 534 1108 462 1108 379 c 0
 1108 278 1071 190 996 114 c 0
 921 38 793 0 610 0 c 2
 36 0 l 1
 36 37 l 1
 120 40 174 53 197 77 c 0
 220 101 232 158 232 247 c 2
 232 1109 l 2
 232 1178 227 1224 218 1248 c 0
 208 1272 192 1289 170 1299 c 0
 148 1309 107 1316 48 1319 c 1
 48 1356 l 1
 1009 1356 l 1
424 81 m 1
 483 72 528 67 561 67 c 0
 643 67 717 94 784 149 c 0
 850 204 883 279 883 376 c 0
 883 476 848 550 779 598 c 0
 710 647 622 671 515 671 c 0
 485 671 455 668 424 663 c 1
 424 81 l 1
EndSplineSet
Validated: 1
EndChar

StartChar: uniE004
Encoding: 57348 57348 4
Width: 1184
VWidth: 0
Flags: HW
LayerCount: 2
Back
Fore
SplineSet
1125 1356 m 1
 1130 1039 l 1
 1091 1039 l 1
 1088 1103 1075 1154 1050 1193 c 0
 1025 1232 995 1256 960 1266 c 0
 924 1277 872 1282 805 1282 c 2
 425 1282 l 1
 425 247 l 2
 425 158 436 101 460 77 c 0
 482 53 536 40 619 37 c 1
 619 0 l 1
 37 0 l 1
 37 37 l 1
 121 40 175 53 198 77 c 0
 221 101 233 158 233 247 c 2
 233 1109 l 2
 233 1198 221 1255 198 1279 c 0
 175 1303 121 1316 37 1319 c 1
 37 1356 l 1
 1125 1356 l 1
EndSplineSet
Validated: 1
EndChar

StartChar: uniE005
Encoding: 57349 57349 5
Width: 1139
VWidth: 0
Flags: HW
LayerCount: 2
Back
Fore
SplineSet
1011 1030 m 0
 1011 921 961 827 862 748 c 0
 813 710 737 662 632 605 c 0
 524 547 447 500 401 465 c 0
 326 408 288 342 288 269 c 0
 288 200 316 144 373 103 c 0
 424 66 486 47 558 47 c 0
 625 47 688 61 747 90 c 0
 810 120 858 162 891 216 c 0
 920 265 944 337 961 434 c 1
 998 434 l 1
 998 -31 l 1
 961 -31 l 1
 954 20 933 46 900 46 c 0
 877 46 836 36 778 17 c 0
 711 -6 668 -19 648 -22 c 0
 613 -28 576 -31 537 -31 c 0
 422 -31 324 3 242 70 c 0
 154 142 110 234 110 346 c 0
 110 459 158 554 255 630 c 0
 301 666 387 718 514 786 c 0
 669 869 767 936 809 986 c 0
 838 1021 852 1058 852 1099 c 0
 852 1160 827 1211 776 1251 c 0
 729 1288 675 1307 612 1307 c 0
 549 1307 490 1291 433 1260 c 0
 376 1229 332 1186 302 1132 c 0
 270 1079 249 1007 237 918 c 1
 200 918 l 1
 200 1387 l 1
 237 1387 l 1
 248 1335 271 1309 306 1309 c 0
 321 1309 347 1317 385 1334 c 0
 465 1369 541 1387 614 1387 c 0
 722 1387 814 1355 890 1291 c 0
 971 1223 1011 1136 1011 1030 c 0
EndSplineSet
Validated: 1
EndChar

StartChar: uniE006
Encoding: 57350 57350 6
Width: 1317
VWidth: 0
Flags: HW
LayerCount: 2
Back
Fore
SplineSet
50 0 m 1
 658 1387 l 1
 692 1387 l 1
 1266 0 l 1
 50 0 l 1
1027 85 m 1
 622 1081 l 1
 184 85 l 1
 1027 85 l 1
EndSplineSet
Validated: 1
EndChar

StartChar: uniE007
Encoding: 57351 57351 7
Width: 1479
VWidth: 0
Flags: HW
LayerCount: 2
Back
Fore
SplineSet
35 0 m 1
 35 37 l 1
 86 37 l 2
 143 37 184 55 208 92 c 0
 223 114 230 163 230 240 c 2
 230 1116 l 2
 230 1201 221 1254 202 1275 c 0
 176 1304 137 1319 86 1319 c 2
 35 1319 l 1
 35 1356 l 1
 587 1356 l 2
 790 1356 944 1333 1050 1287 c 0
 1155 1241 1240 1164 1304 1057 c 0
 1369 950 1401 826 1401 685 c 0
 1401 496 1344 339 1229 212 c 0
 1100 71 904 0 641 0 c 2
 35 0 l 1
422 98 m 1
 507 79 578 70 635 70 c 0
 790 70 918 124 1020 233 c 0
 1122 342 1173 489 1173 675 c 0
 1173 862 1122 1010 1020 1118 c 0
 918 1226 787 1280 627 1280 c 0
 567 1280 499 1270 422 1251 c 1
 422 98 l 1
EndSplineSet
Validated: 1
EndChar

StartChar: uniE008
Encoding: 57352 57352 8
Width: 1251
VWidth: 0
Flags: HW
LayerCount: 2
Back
Fore
SplineSet
428 1282 m 1
 428 746 l 1
 726 746 l 2
 803 746 855 758 881 781 c 0
 916 812 935 866 939 943 c 1
 976 943 l 1
 976 471 l 1
 939 471 l 1
 930 537 920 579 911 598 c 0
 899 621 879 640 852 653 c 0
 825 666 783 673 726 673 c 2
 428 673 l 1
 428 226 l 2
 428 166 431 130 436 116 c 0
 441 104 451 93 464 86 c 0
 477 78 503 74 540 74 c 2
 770 74 l 2
 847 74 902 79 937 90 c 0
 972 101 1005 122 1037 153 c 0
 1078 194 1121 257 1164 340 c 1
 1204 340 l 1
 1087 0 l 1
 42 0 l 1
 42 37 l 1
 90 37 l 2
 122 37 152 45 181 60 c 0
 202 71 217 87 224 108 c 0
 232 129 236 173 236 239 c 2
 236 1120 l 2
 236 1206 227 1259 210 1279 c 0
 186 1306 146 1319 90 1319 c 2
 42 1319 l 1
 42 1356 l 1
 1087 1356 l 1
 1102 1059 l 1
 1063 1059 l 1
 1049 1130 1034 1179 1016 1206 c 0
 1000 1233 974 1253 941 1267 c 0
 914 1277 867 1282 800 1282 c 2
 428 1282 l 1
EndSplineSet
Validated: 1
EndChar

StartChar: uniE009
Encoding: 57353 57353 9
Width: 1352
VWidth: 0
Flags: HW
LayerCount: 2
Back
Fore
SplineSet
1237 931 m 1
 1200 931 l 1
 1182 1048 1127 1141 1036 1212 c 0
 945 1282 851 1317 756 1317 c 0
 647 1317 549 1270 460 1178 c 0
 371 1084 320 936 306 732 c 1
 834 732 l 1
 834 658 l 1
 306 658 l 1
 306 530 329 419 376 325 c 0
 423 231 480 161 549 115 c 0
 618 69 700 46 795 46 c 0
 983 46 1140 132 1266 303 c 1
 1293 282 l 1
 1164 73 985 -31 756 -31 c 0
 556 -31 392 37 266 174 c 0
 138 310 75 477 75 674 c 0
 75 817 109 942 177 1050 c 0
 245 1156 328 1240 424 1298 c 0
 522 1358 632 1387 757 1387 c 0
 844 1387 940 1368 1047 1329 c 0
 1075 1319 1094 1314 1104 1314 c 0
 1128 1314 1153 1338 1180 1385 c 1
 1214 1385 l 1
 1237 931 l 1
EndSplineSet
Validated: 1
EndChar

StartChar: uniE00A
Encoding: 57354 57354 10
Width: 1251
VWidth: 0
Flags: HW
LayerCount: 2
Back
Fore
SplineSet
1178 1356 m 1
 287 82 l 1
 843 82 l 2
 928 82 994 101 1040 138 c 0
 1085 175 1126 251 1161 365 c 1
 1194 359 l 1
 1130 0 l 1
 26 0 l 1
 26 37 l 1
 896 1275 l 1
 462 1275 l 2
 390 1275 338 1267 306 1252 c 0
 273 1236 248 1213 232 1184 c 0
 214 1154 199 1098 185 1017 c 1
 147 1017 l 1
 175 1356 l 1
 1178 1356 l 1
EndSplineSet
Validated: 1
EndChar

StartChar: uniE00B
Encoding: 57355 57355 11
Width: 1026
VWidth: 0
Flags: HW
LayerCount: 2
Back
Fore
SplineSet
102 991 m 1
 102 1385 l 1
 137 1385 l 1
 148 1341 172 1319 211 1319 c 0
 226 1319 257 1328 305 1346 c 0
 380 1373 459 1387 542 1387 c 0
 654 1387 744 1353 812 1286 c 0
 880 1219 914 1140 914 1050 c 0
 914 968 888 898 837 840 c 0
 786 781 718 738 633 711 c 1
 725 694 799 652 856 586 c 0
 913 518 941 440 941 349 c 0
 941 237 898 146 811 75 c 0
 724 4 617 -31 488 -31 c 0
 297 -31 148 60 43 241 c 1
 77 263 l 1
 111 208 160 160 225 120 c 0
 290 80 359 60 434 60 c 0
 523 60 592 90 640 148 c 0
 690 208 714 280 714 365 c 0
 714 453 683 527 621 588 c 0
 559 649 456 679 313 679 c 1
 313 745 l 1
 414 745 491 756 542 777 c 0
 593 798 635 833 667 881 c 0
 699 929 715 985 715 1048 c 0
 715 1121 693 1181 648 1228 c 0
 603 1275 543 1298 466 1298 c 0
 371 1298 296 1270 242 1214 c 0
 189 1157 154 1083 137 991 c 1
 102 991 l 1
EndSplineSet
Validated: 1
EndChar

StartChar: uniE00C
Encoding: 57356 57356 12
Width: 1479
VWidth: 0
Flags: HW
LayerCount: 2
Back
Fore
SplineSet
421 727 m 1
 1051 727 l 1
 1051 1115 l 2
 1051 1184 1047 1230 1038 1252 c 0
 1031 1269 1017 1283 996 1295 c 0
 967 1311 937 1319 905 1319 c 2
 857 1319 l 1
 857 1356 l 1
 1437 1356 l 1
 1437 1319 l 1
 1389 1319 l 2
 1357 1319 1327 1311 1298 1296 c 0
 1277 1285 1262 1269 1254 1248 c 0
 1247 1226 1243 1182 1243 1115 c 2
 1243 240 l 2
 1243 171 1247 126 1256 104 c 0
 1263 87 1276 73 1297 61 c 0
 1326 45 1357 37 1389 37 c 2
 1437 37 l 1
 1437 0 l 1
 857 0 l 1
 857 37 l 1
 905 37 l 2
 960 37 1001 53 1026 86 c 0
 1043 107 1051 159 1051 240 c 2
 1051 653 l 1
 421 653 l 1
 421 240 l 2
 421 171 425 126 434 104 c 0
 441 87 455 73 476 61 c 0
 505 45 535 37 567 37 c 2
 616 37 l 1
 616 0 l 1
 35 0 l 1
 35 37 l 1
 83 37 l 2
 139 37 180 53 205 86 c 0
 221 107 229 159 229 240 c 2
 229 1115 l 2
 229 1184 225 1230 216 1252 c 0
 209 1269 196 1283 175 1295 c 0
 146 1311 115 1319 83 1319 c 2
 35 1319 l 1
 35 1356 l 1
 616 1356 l 1
 616 1319 l 1
 567 1319 l 2
 535 1319 505 1311 476 1296 c 0
 455 1285 441 1269 433 1248 c 0
 425 1226 421 1182 421 1115 c 2
 421 727 l 1
EndSplineSet
Validated: 1
EndChar

StartChar: uniE00D
Encoding: 57357 57357 13
Width: 1479
VWidth: 0
Flags: HW
LayerCount: 2
Back
Fore
SplineSet
1400 686 m 0
 1400 489 1339 321 1216 184 c 0
 1089 41 928 -31 733 -31 c 0
 536 -31 375 39 250 180 c 0
 131 315 72 483 72 683 c 0
 72 898 145 1074 292 1210 c 0
 419 1328 572 1387 749 1387 c 0
 937 1387 1094 1316 1219 1175 c 0
 1340 1040 1400 877 1400 686 c 0
1170 727 m 1
 1163 894 1130 1027 1071 1126 c 0
 996 1251 882 1314 730 1314 c 0
 583 1314 473 1250 398 1122 c 0
 339 1019 307 888 302 727 c 1
 1170 727 l 1
1171 653 m 1
 301 653 l 1
 306 448 353 289 443 176 c 0
 515 85 611 40 731 40 c 0
 888 40 1005 106 1080 239 c 0
 1141 346 1171 484 1171 653 c 1
EndSplineSet
Validated: 1
EndChar

StartChar: uniE00E
Encoding: 57358 57358 14
Width: 682
VWidth: 0
Flags: HW
LayerCount: 2
Back
Fore
SplineSet
632 37 m 1
 632 0 l 1
 51 0 l 1
 51 37 l 1
 99 37 l 2
 155 37 196 53 221 86 c 0
 237 107 245 159 245 240 c 2
 245 1116 l 2
 245 1185 241 1230 232 1252 c 0
 225 1269 212 1283 191 1295 c 0
 162 1311 131 1319 99 1319 c 2
 51 1319 l 1
 51 1356 l 1
 632 1356 l 1
 632 1319 l 1
 583 1319 l 2
 528 1319 487 1303 462 1270 c 0
 445 1249 437 1197 437 1116 c 2
 437 240 l 2
 437 171 441 126 450 104 c 0
 457 87 471 73 492 61 c 0
 521 45 551 37 583 37 c 2
 632 37 l 1
EndSplineSet
Validated: 1
EndChar

StartChar: uniE00F
Encoding: 57359 57359 15
Width: 797
VWidth: 0
Flags: HW
LayerCount: 2
Back
Fore
SplineSet
204 1319 m 1
 204 1356 l 1
 785 1356 l 1
 785 1319 l 1
 736 1319 l 2
 681 1319 640 1303 615 1270 c 0
 599 1249 591 1197 591 1116 c 2
 591 453 l 2
 591 351 580 268 558 205 c 0
 535 142 497 86 442 40 c 0
 387 -8 321 -31 244 -31 c 0
 181 -31 132 -16 96 16 c 0
 60 46 42 82 42 122 c 0
 42 155 50 179 67 196 c 0
 89 217 115 227 144 227 c 0
 165 227 184 220 202 206 c 0
 218 192 240 155 266 94 c 0
 281 58 301 40 325 40 c 0
 343 40 360 51 376 73 c 0
 391 95 399 134 399 190 c 2
 399 1116 l 2
 399 1185 395 1230 386 1252 c 0
 379 1269 365 1283 344 1295 c 0
 315 1311 285 1319 253 1319 c 2
 204 1319 l 1
EndSplineSet
Validated: 1
EndChar

StartChar: uniE010
Encoding: 57360 57360 16
Width: 1479
VWidth: 0
Flags: HW
LayerCount: 2
Back
Fore
SplineSet
612 752 m 1
 1112 255 l 2
 1194 173 1264 117 1322 88 c 0
 1380 58 1438 41 1496 37 c 1
 1496 0 l 1
 851 0 l 1
 851 37 l 1
 890 37 918 44 934 56 c 0
 952 70 960 84 960 100 c 0
 960 116 957 130 950 143 c 0
 944 156 923 179 888 214 c 2
 420 677 l 1
 420 240 l 2
 420 171 424 126 433 104 c 0
 440 87 454 73 475 61 c 0
 504 45 534 37 566 37 c 2
 612 37 l 1
 612 0 l 1
 34 0 l 1
 34 37 l 1
 82 37 l 2
 138 37 179 53 204 86 c 0
 220 107 228 159 228 240 c 2
 228 1116 l 2
 228 1185 224 1230 215 1253 c 0
 208 1269 195 1283 174 1295 c 0
 145 1311 114 1319 82 1319 c 2
 34 1319 l 1
 34 1356 l 1
 612 1356 l 1
 612 1319 l 1
 566 1319 l 2
 535 1319 504 1311 475 1296 c 0
 454 1285 440 1269 432 1248 c 0
 424 1227 420 1183 420 1116 c 2
 420 701 l 1
 433 714 479 756 557 828 c 0
 755 1009 875 1130 916 1191 c 0
 934 1218 943 1241 943 1261 c 0
 943 1276 936 1290 922 1302 c 0
 908 1313 884 1319 851 1319 c 2
 820 1319 l 1
 820 1356 l 1
 1318 1356 l 1
 1318 1319 l 1
 1289 1318 1262 1314 1238 1307 c 0
 1214 1300 1185 1286 1150 1264 c 0
 1115 1244 1073 1210 1022 1163 c 0
 1007 1150 940 1081 819 958 c 2
 612 752 l 1
EndSplineSet
Validated: 1
EndChar

StartChar: uniE011
Encoding: 57361 57361 17
Width: 1479
VWidth: 0
Flags: HW
LayerCount: 2
Back
Fore
SplineSet
1054 1132 m 1
 1054 1213 1041 1265 1014 1286 c 0
 988 1308 935 1319 855 1319 c 1
 855 1356 l 1
 1442 1356 l 1
 1442 1319 l 1
 1358 1316 1304 1303 1281 1279 c 0
 1258 1255 1246 1198 1246 1109 c 2
 1246 247 l 2
 1246 158 1258 101 1281 77 c 0
 1304 53 1358 40 1442 37 c 1
 1442 0 l 1
 855 0 l 1
 855 37 l 1
 941 40 996 53 1019 78 c 0
 1042 102 1054 158 1054 247 c 2
 1054 1025 l 1
 425 219 l 1
 426 161 430 122 436 102 c 0
 444 83 460 67 486 56 c 0
 511 45 557 38 622 37 c 1
 622 0 l 1
 37 0 l 1
 37 37 l 1
 121 40 175 53 198 77 c 0
 221 101 233 158 233 247 c 2
 233 1109 l 2
 233 1198 221 1255 198 1279 c 0
 175 1303 121 1316 37 1319 c 1
 37 1356 l 1
 622 1356 l 1
 622 1319 l 1
 537 1316 483 1303 460 1279 c 0
 437 1255 425 1198 425 1109 c 2
 425 328 l 1
 1054 1132 l 1
EndSplineSet
Validated: 1
EndChar

StartChar: uniE012
Encoding: 57362 57362 18
Width: 1485
VWidth: 0
Flags: HW
LayerCount: 2
Back
Fore
SplineSet
28 0 m 1
 28 37 l 1
 79 45 119 62 146 87 c 0
 173 112 202 161 232 233 c 2
 705 1387 l 1
 742 1387 l 1
 1246 227 l 2
 1280 148 1309 98 1334 74 c 0
 1359 52 1402 39 1464 37 c 1
 1464 0 l 1
 911 0 l 1
 911 37 l 1
 974 42 1015 53 1034 69 c 0
 1052 85 1061 106 1061 131 c 0
 1061 162 1046 213 1015 284 c 2
 670 1079 l 1
 350 294 l 2
 320 221 305 168 305 134 c 0
 305 106 314 84 333 68 c 0
 352 51 389 41 446 37 c 1
 446 0 l 1
 28 0 l 1
EndSplineSet
Validated: 1
EndChar

StartChar: uniE013
Encoding: 57363 57363 19
Width: 1821
VWidth: 0
Flags: HW
LayerCount: 2
Back
Fore
SplineSet
838 0 m 1
 314 1141 l 1
 314 235 l 2
 314 152 323 100 341 79 c 0
 366 51 405 37 458 37 c 2
 506 37 l 1
 506 0 l 1
 34 0 l 1
 34 37 l 1
 82 37 l 2
 139 37 180 54 204 89 c 0
 219 110 226 159 226 235 c 2
 226 1121 l 2
 226 1181 219 1224 206 1251 c 0
 197 1270 180 1286 154 1300 c 0
 130 1312 89 1319 34 1319 c 1
 34 1356 l 1
 418 1356 l 1
 910 295 l 1
 1394 1356 l 1
 1778 1356 l 1
 1778 1319 l 1
 1731 1319 l 2
 1673 1319 1632 1302 1608 1267 c 0
 1593 1246 1586 1197 1586 1121 c 2
 1586 235 l 2
 1586 152 1595 100 1614 79 c 0
 1639 51 1678 37 1731 37 c 2
 1778 37 l 1
 1778 0 l 1
 1202 0 l 1
 1202 37 l 1
 1250 37 l 2
 1308 37 1349 54 1372 89 c 0
 1387 110 1394 159 1394 235 c 2
 1394 1141 l 1
 871 0 l 1
 838 0 l 1
EndSplineSet
Validated: 1
EndChar

StartChar: uniE014
Encoding: 57364 57364 20
Width: 1479
VWidth: 0
Flags: HW
LayerCount: 2
Back
Fore
SplineSet
-27 1356 m 1
 341 1356 l 1
 1170 339 l 1
 1170 1121 l 2
 1170 1204 1161 1256 1142 1277 c 0
 1117 1305 1078 1319 1025 1319 c 2
 978 1319 l 1
 978 1356 l 1
 1450 1356 l 1
 1450 1319 l 1
 1402 1319 l 2
 1345 1319 1304 1302 1280 1267 c 0
 1265 1246 1258 1197 1258 1121 c 2
 1258 -22 l 1
 1222 -22 l 1
 328 1070 l 1
 328 235 l 2
 328 152 337 100 355 79 c 0
 380 51 419 37 472 37 c 2
 520 37 l 1
 520 0 l 1
 48 0 l 1
 48 37 l 1
 95 37 l 2
 153 37 194 54 218 89 c 0
 233 110 240 159 240 235 c 2
 240 1178 l 1
 201 1224 171 1254 150 1269 c 0
 130 1284 100 1297 61 1310 c 0
 42 1316 12 1319 -27 1319 c 1
 -27 1356 l 1
EndSplineSet
Validated: 1
EndChar

StartChar: uniE015
Encoding: 57365 57365 21
Width: 1757
VWidth: 0
Flags: HW
LayerCount: 2
Back
Fore
SplineSet
978 1356 m 1
 1691 1356 l 1
 1706 1056 l 1
 1666 1056 l 1
 1655 1173 1611 1243 1535 1266 c 0
 1500 1277 1436 1282 1344 1282 c 2
 1258 1282 l 1
 1258 -22 l 1
 1222 -22 l 1
 328 1070 l 1
 328 235 l 2
 328 152 337 100 355 79 c 0
 380 51 419 37 472 37 c 2
 520 37 l 1
 520 0 l 1
 48 0 l 1
 48 37 l 1
 95 37 l 2
 153 37 194 54 218 89 c 0
 233 110 240 159 240 235 c 2
 240 1178 l 1
 201 1224 171 1254 150 1269 c 0
 130 1284 100 1297 61 1310 c 0
 42 1316 12 1319 -27 1319 c 1
 -27 1356 l 1
 341 1356 l 1
 1170 339 l 1
 1170 1121 l 2
 1170 1204 1161 1256 1142 1277 c 0
 1117 1305 1078 1319 1025 1319 c 2
 978 1319 l 1
 978 1356 l 1
EndSplineSet
Validated: 1
EndChar

StartChar: uniE016
Encoding: 57366 57366 22
Width: 1479
VWidth: 0
Flags: HW
LayerCount: 2
Back
Fore
SplineSet
749 1387 m 0
 925 1387 1078 1320 1206 1186 c 0
 1336 1053 1400 886 1400 686 c 0
 1400 480 1335 309 1205 173 c 0
 1075 37 918 -31 733 -31 c 0
 546 -31 390 35 262 168 c 0
 136 301 72 472 72 683 c 0
 72 898 145 1074 292 1210 c 0
 419 1328 572 1387 749 1387 c 0
730 1314 m 0
 609 1314 511 1269 438 1179 c 0
 347 1067 301 903 301 687 c 0
 301 466 348 295 443 176 c 0
 516 85 612 40 731 40 c 0
 858 40 964 90 1046 189 c 0
 1130 288 1171 445 1171 659 c 0
 1171 891 1125 1064 1034 1178 c 0
 961 1269 859 1314 730 1314 c 0
EndSplineSet
Validated: 1
EndChar

StartChar: uniE017
Encoding: 57367 57367 23
Width: 1479
VWidth: 0
Flags: HW
LayerCount: 2
Back
Fore
SplineSet
1054 1282 m 1
 425 1282 l 1
 425 247 l 2
 425 158 436 101 460 77 c 0
 482 53 536 40 621 37 c 1
 621 0 l 1
 37 0 l 1
 37 37 l 1
 121 40 175 53 198 77 c 0
 221 101 233 158 233 247 c 2
 233 1109 l 2
 233 1198 221 1255 198 1279 c 0
 175 1303 121 1316 37 1319 c 1
 37 1356 l 1
 1442 1356 l 1
 1442 1319 l 1
 1358 1316 1304 1303 1281 1279 c 0
 1258 1255 1246 1198 1246 1109 c 2
 1246 247 l 2
 1246 158 1258 101 1281 77 c 0
 1304 53 1358 40 1442 37 c 1
 1442 0 l 1
 859 0 l 1
 859 37 l 1
 942 40 996 53 1019 76 c 0
 1042 100 1054 157 1054 247 c 2
 1054 1282 l 1
EndSplineSet
Validated: 1
EndChar

StartChar: uniE018
Encoding: 57368 57368 24
Width: 1139
VWidth: 0
Flags: HW
LayerCount: 2
Back
Fore
SplineSet
420 635 m 1
 420 240 l 2
 420 155 429 102 448 81 c 0
 473 52 512 37 563 37 c 2
 615 37 l 1
 615 0 l 1
 34 0 l 1
 34 37 l 1
 85 37 l 2
 142 37 183 56 208 93 c 0
 221 114 228 163 228 240 c 2
 228 1116 l 2
 228 1201 219 1254 201 1275 c 0
 175 1304 136 1319 85 1319 c 2
 34 1319 l 1
 34 1356 l 1
 531 1356 l 2
 652 1356 748 1344 818 1318 c 0
 888 1294 947 1251 995 1192 c 0
 1043 1133 1067 1062 1067 981 c 0
 1067 870 1030 780 958 711 c 0
 884 642 781 607 648 607 c 0
 615 607 580 609 542 614 c 0
 504 619 463 626 420 635 c 1
420 692 m 1
 455 685 487 680 514 677 c 0
 541 674 565 672 584 672 c 0
 653 672 713 699 764 752 c 0
 814 806 839 876 839 961 c 0
 839 1020 827 1074 803 1124 c 0
 779 1175 745 1212 701 1238 c 0
 657 1262 607 1275 551 1275 c 0
 517 1275 473 1269 420 1256 c 1
 420 692 l 1
EndSplineSet
Validated: 1
EndChar

StartChar: uniE019
Encoding: 57369 57369 25
Width: 1192
VWidth: 0
Flags: HW
LayerCount: 2
Back
Fore
SplineSet
32 1356 m 1
 1049 1356 l 1
 1076 1015 l 1
 1038 1015 l 1
 1033 1082 1022 1134 1004 1170 c 0
 986 1205 961 1231 930 1247 c 0
 899 1263 849 1271 781 1271 c 2
 318 1271 l 1
 731 741 l 1
 261 186 l 1
 776 186 l 2
 869 186 941 201 990 231 c 0
 1039 261 1076 324 1101 419 c 1
 1139 410 l 1
 1081 0 l 1
 32 0 l 1
 32 36 l 1
 554 652 l 1
 32 1320 l 1
 32 1356 l 1
EndSplineSet
Validated: 1
EndChar

StartChar: uniE01A
Encoding: 57370 57370 26
Width: 1366
VWidth: 0
Flags: HW
LayerCount: 2
Back
Fore
SplineSet
1233 1387 m 1
 1264 926 l 1
 1233 926 l 1
 1192 1064 1133 1163 1056 1224 c 0
 979 1285 887 1315 780 1315 c 0
 690 1315 609 1292 536 1246 c 0
 463 1201 406 1128 364 1028 c 0
 323 928 302 804 302 655 c 0
 302 532 322 426 361 336 c 0
 400 246 460 177 538 129 c 0
 618 81 708 57 809 57 c 0
 897 57 975 76 1042 114 c 0
 1109 151 1183 226 1264 338 c 1
 1295 318 l 1
 1227 197 1148 109 1057 53 c 0
 966 -3 859 -31 734 -31 c 0
 509 -31 335 52 212 219 c 0
 120 343 74 489 74 657 c 0
 74 792 104 917 165 1030 c 0
 226 1143 309 1231 416 1294 c 0
 522 1356 638 1387 764 1387 c 0
 862 1387 959 1363 1054 1315 c 0
 1082 1300 1102 1293 1114 1293 c 0
 1132 1293 1148 1299 1161 1312 c 0
 1178 1330 1191 1355 1198 1387 c 1
 1233 1387 l 1
EndSplineSet
Validated: 1
EndChar

StartChar: uniE01B
Encoding: 57371 57371 27
Width: 1251
VWidth: 0
Flags: HW
LayerCount: 2
Back
Fore
SplineSet
1185 1356 m 1
 1200 1038 l 1
 1162 1038 l 1
 1155 1094 1145 1134 1132 1158 c 0
 1111 1197 1084 1225 1050 1244 c 0
 1015 1262 970 1271 914 1271 c 2
 723 1271 l 1
 723 235 l 2
 723 152 732 100 750 79 c 0
 775 51 814 37 867 37 c 2
 914 37 l 1
 914 0 l 1
 339 0 l 1
 339 37 l 1
 387 37 l 2
 444 37 485 54 509 89 c 0
 524 110 531 159 531 235 c 2
 531 1271 l 1
 368 1271 l 2
 305 1271 260 1266 233 1257 c 0
 198 1244 169 1220 144 1184 c 0
 119 1148 105 1099 100 1038 c 1
 62 1038 l 1
 78 1356 l 1
 1185 1356 l 1
EndSplineSet
Validated: 1
EndChar

StartChar: uniE01C
Encoding: 57372 57372 28
Width: 1479
VWidth: 0
Flags: HW
LayerCount: 2
Back
Fore
SplineSet
976 1356 m 1
 1449 1356 l 1
 1449 1319 l 1
 1423 1319 l 2
 1406 1319 1380 1311 1347 1296 c 0
 1314 1281 1283 1259 1256 1230 c 0
 1229 1201 1195 1155 1155 1090 c 2
 828 575 l 1
 828 235 l 2
 828 152 837 100 856 79 c 0
 881 51 921 37 976 37 c 2
 1020 37 l 1
 1020 0 l 1
 444 0 l 1
 444 37 l 1
 492 37 l 2
 549 37 590 54 614 89 c 0
 629 110 636 159 636 235 c 2
 636 556 l 1
 264 1124 l 2
 220 1191 190 1232 174 1249 c 0
 159 1266 126 1286 77 1309 c 0
 64 1316 44 1319 19 1319 c 1
 19 1356 l 1
 599 1356 l 1
 599 1319 l 1
 569 1319 l 2
 538 1319 509 1312 482 1297 c 0
 456 1282 443 1260 443 1231 c 0
 443 1207 463 1164 504 1101 c 2
 787 664 l 1
 1053 1082 l 2
 1093 1145 1113 1191 1113 1222 c 0
 1113 1241 1108 1257 1098 1272 c 0
 1089 1287 1075 1298 1057 1306 c 0
 1039 1315 1012 1319 976 1319 c 1
 976 1356 l 1
EndSplineSet
Validated: 1
EndChar

StartChar: uniE01D
Encoding: 57373 57373 29
Width: 1450
VWidth: 0
Flags: HW
LayerCount: 2
Back
Fore
SplineSet
26 1356 m 1
 576 1356 l 1
 576 1319 l 1
 479 1315 431 1289 431 1241 c 0
 431 1207 467 1128 538 1003 c 2
 834 483 l 1
 1050 1003 l 2
 1095 1112 1118 1186 1118 1223 c 0
 1118 1275 1076 1307 992 1319 c 1
 992 1356 l 1
 1417 1356 l 1
 1417 1319 l 1
 1317 1307 1241 1239 1189 1115 c 2
 930 499 l 2
 863 341 808 229 766 162 c 0
 724 95 678 46 628 16 c 0
 579 -16 527 -31 474 -31 c 0
 428 -31 389 -21 358 -2 c 0
 326 18 310 45 310 79 c 0
 310 104 318 124 335 140 c 0
 352 157 374 165 403 165 c 0
 431 165 464 154 503 131 c 0
 529 117 549 110 562 110 c 0
 615 110 674 165 739 274 c 1
 247 1139 l 2
 212 1200 180 1243 148 1268 c 0
 118 1293 77 1310 26 1319 c 1
 26 1356 l 1
EndSplineSet
Validated: 1
EndChar

StartChar: uniE01E
Encoding: 57374 57374 30
Width: 1497
VWidth: 0
Flags: HW
LayerCount: 2
Back
Fore
SplineSet
844 191 m 1
 853 88 917 37 1036 37 c 1
 1036 0 l 1
 460 0 l 1
 460 37 l 1
 579 37 643 88 652 191 c 1
 476 191 335 238 230 333 c 0
 124 428 71 543 71 678 c 0
 71 823 125 938 232 1024 c 0
 339 1111 479 1158 652 1165 c 1
 644 1268 580 1319 460 1319 c 1
 460 1356 l 1
 1036 1356 l 1
 1036 1319 l 1
 917 1319 853 1268 844 1165 c 1
 1035 1159 1179 1109 1278 1014 c 0
 1376 920 1425 808 1425 678 c 0
 1425 543 1372 428 1267 333 c 0
 1162 238 1021 191 844 191 c 1
652 1110 m 1
 538 1103 449 1068 384 1004 c 0
 319 939 287 825 287 661 c 0
 287 398 409 260 652 246 c 1
 652 1110 l 1
844 1110 m 1
 844 246 l 1
 954 251 1042 285 1110 348 c 0
 1176 411 1210 527 1210 694 c 0
 1210 957 1088 1096 844 1110 c 1
EndSplineSet
Validated: 1
EndChar

StartChar: uniE01F
Encoding: 57375 57375 31
Width: 1479
VWidth: 0
Flags: HW
LayerCount: 2
Back
Fore
SplineSet
937 454 m 1
 412 454 l 1
 320 240 l 2
 297 187 286 148 286 122 c 0
 286 101 296 83 316 68 c 0
 335 52 378 42 443 37 c 1
 443 0 l 1
 16 0 l 1
 16 37 l 1
 73 47 109 60 126 76 c 0
 160 108 198 173 239 271 c 2
 716 1387 l 1
 751 1387 l 1
 1223 259 l 2
 1261 168 1296 110 1326 82 c 0
 1358 56 1401 40 1456 37 c 1
 1456 0 l 1
 921 0 l 1
 921 37 l 1
 975 40 1012 49 1030 64 c 0
 1050 79 1059 98 1059 120 c 0
 1059 149 1046 196 1019 259 c 2
 937 454 l 1
909 528 m 1
 679 1076 l 1
 443 528 l 1
 909 528 l 1
959 1797 m 1
 664 1452 l 1
 630 1452 l 1
 735 1797 l 1
 959 1797 l 1
EndSplineSet
Validated: 1
EndChar

StartChar: uniE020
Encoding: 57376 57376 32
Width: 1821
VWidth: 0
Flags: HW
LayerCount: 2
Back
Fore
SplineSet
1027 1282 m 1
 1027 746 l 1
 1284 746 l 2
 1361 746 1415 760 1446 789 c 0
 1477 818 1496 869 1501 943 c 1
 1537 943 l 1
 1537 472 l 1
 1501 472 l 1
 1493 539 1482 584 1468 606 c 0
 1455 630 1432 648 1400 662 c 0
 1385 669 1346 673 1284 673 c 2
 1027 673 l 1
 1027 224 l 2
 1027 163 1029 127 1034 116 c 0
 1039 104 1048 94 1063 86 c 0
 1078 78 1104 74 1142 74 c 2
 1324 74 l 2
 1397 74 1453 80 1492 92 c 0
 1531 104 1569 127 1606 162 c 0
 1655 207 1695 267 1726 341 c 1
 1764 341 l 1
 1656 0 l 1
 638 0 l 1
 638 37 l 1
 689 37 l 2
 744 37 785 53 811 86 c 0
 827 107 835 158 835 239 c 2
 835 525 l 1
 439 525 l 1
 315 292 l 2
 268 204 245 146 245 119 c 0
 245 100 255 83 276 68 c 0
 296 52 338 42 402 37 c 1
 402 0 l 1
 -24 0 l 1
 -24 37 l 1
 5 38 30 44 52 56 c 0
 72 68 95 90 120 121 c 0
 145 152 176 203 214 274 c 2
 626 1045 l 2
 677 1140 703 1205 703 1238 c 0
 703 1259 694 1276 676 1288 c 0
 653 1305 605 1315 530 1319 c 1
 530 1356 l 1
 1641 1356 l 1
 1656 1058 l 1
 1622 1058 l 1
 1613 1127 1597 1179 1572 1215 c 0
 1554 1241 1528 1260 1494 1272 c 0
 1475 1279 1429 1282 1358 1282 c 2
 1027 1282 l 1
835 1282 m 1
 478 598 l 1
 835 598 l 1
 835 1282 l 1
1135 1836 m 1
 840 1491 l 1
 806 1491 l 1
 911 1836 l 1
 1135 1836 l 1
EndSplineSet
Validated: 1
EndChar

StartChar: uniE021
Encoding: 57377 57377 33
Width: 1352
VWidth: 0
Flags: HW
LayerCount: 2
Back
Fore
SplineSet
753 1797 m 1
 977 1797 l 1
 682 1452 l 1
 648 1452 l 1
 753 1797 l 1
758 1390 m 0
 845 1390 941 1371 1048 1332 c 0
 1076 1322 1096 1317 1106 1317 c 0
 1130 1317 1155 1341 1182 1388 c 1
 1216 1388 l 1
 1239 933 l 1
 1202 933 l 1
 1184 1050 1129 1144 1037 1215 c 0
 946 1285 852 1320 757 1320 c 0
 648 1320 549 1274 460 1180 c 0
 371 1087 320 938 306 734 c 1
 835 734 l 1
 835 660 l 1
 306 660 l 1
 306 531 329 420 376 326 c 0
 423 232 480 161 549 115 c 0
 618 69 700 46 796 46 c 0
 984 46 1142 132 1268 304 c 1
 1295 283 l 1
 1166 74 987 -31 757 -31 c 0
 556 -31 392 37 265 174 c 0
 138 311 74 478 74 676 c 0
 74 819 108 945 176 1052 c 0
 244 1159 327 1243 424 1302 c 0
 522 1361 633 1390 758 1390 c 0
EndSplineSet
Validated: 1
EndChar

StartChar: uniE022
Encoding: 57378 57378 34
Width: 682
VWidth: 0
Flags: HW
LayerCount: 2
Back
Fore
SplineSet
632 37 m 1
 632 0 l 1
 51 0 l 1
 51 37 l 1
 99 37 l 2
 155 37 196 53 221 86 c 0
 237 107 245 159 245 240 c 2
 245 1116 l 2
 245 1185 241 1230 232 1252 c 0
 225 1269 212 1283 191 1295 c 0
 162 1311 131 1319 99 1319 c 2
 51 1319 l 1
 51 1356 l 1
 632 1356 l 1
 632 1319 l 1
 583 1319 l 2
 528 1319 487 1303 462 1270 c 0
 445 1249 437 1197 437 1116 c 2
 437 240 l 2
 437 171 441 126 450 104 c 0
 457 87 471 73 492 61 c 0
 521 45 551 37 583 37 c 2
 632 37 l 1
565 1797 m 1
 270 1452 l 1
 236 1452 l 1
 341 1797 l 1
 565 1797 l 1
EndSplineSet
Validated: 1
EndChar

StartChar: uniE023
Encoding: 57379 57379 35
Width: 1479
VWidth: 0
Flags: HW
LayerCount: 2
Back
Fore
SplineSet
976 1356 m 1
 1449 1356 l 1
 1449 1319 l 1
 1423 1319 l 2
 1406 1319 1380 1311 1347 1296 c 0
 1314 1281 1283 1259 1256 1230 c 0
 1229 1201 1195 1155 1155 1090 c 2
 828 575 l 1
 828 235 l 2
 828 152 837 100 856 79 c 0
 881 51 921 37 976 37 c 2
 1020 37 l 1
 1020 0 l 1
 444 0 l 1
 444 37 l 1
 492 37 l 2
 549 37 590 54 614 89 c 0
 629 110 636 159 636 235 c 2
 636 556 l 1
 264 1124 l 2
 220 1191 190 1232 174 1249 c 0
 159 1266 126 1286 77 1309 c 0
 64 1316 44 1319 19 1319 c 1
 19 1356 l 1
 599 1356 l 1
 599 1319 l 1
 569 1319 l 2
 538 1319 509 1312 482 1297 c 0
 456 1282 443 1260 443 1231 c 0
 443 1207 463 1164 504 1101 c 2
 787 664 l 1
 1053 1082 l 2
 1093 1145 1113 1191 1113 1222 c 0
 1113 1241 1108 1257 1098 1272 c 0
 1089 1287 1075 1298 1057 1306 c 0
 1039 1315 1012 1319 976 1319 c 1
 976 1356 l 1
996 1797 m 1
 701 1452 l 1
 667 1452 l 1
 772 1797 l 1
 996 1797 l 1
EndSplineSet
Validated: 1
EndChar

StartChar: uniE024
Encoding: 57380 57380 36
Width: 682
VWidth: 0
Flags: HW
LayerCount: 2
Back
Fore
SplineSet
632 37 m 1
 632 0 l 1
 51 0 l 1
 51 37 l 1
 99 37 l 2
 155 37 196 53 221 86 c 0
 237 107 245 159 245 240 c 2
 245 1116 l 2
 245 1185 241 1230 232 1252 c 0
 225 1269 212 1283 191 1295 c 0
 162 1311 131 1319 99 1319 c 2
 51 1319 l 1
 51 1356 l 1
 632 1356 l 1
 632 1319 l 1
 583 1319 l 2
 528 1319 487 1303 462 1270 c 0
 445 1249 437 1197 437 1116 c 2
 437 240 l 2
 437 171 441 126 450 104 c 0
 457 87 471 73 492 61 c 0
 521 45 551 37 583 37 c 2
 632 37 l 1
517 1708 m 0
 547 1708 572 1697 594 1676 c 0
 614 1655 625 1629 625 1599 c 0
 625 1569 614 1544 594 1522 c 0
 572 1502 547 1491 517 1491 c 0
 487 1491 461 1502 440 1522 c 0
 419 1544 408 1569 408 1599 c 0
 408 1629 419 1655 440 1676 c 0
 461 1697 487 1708 517 1708 c 0
164 1708 m 0
 195 1708 220 1697 242 1676 c 0
 262 1655 273 1629 273 1599 c 0
 273 1569 262 1544 241 1522 c 0
 220 1502 194 1491 165 1491 c 0
 135 1491 109 1502 88 1522 c 0
 67 1544 56 1569 56 1599 c 0
 56 1629 66 1655 88 1676 c 0
 108 1697 134 1708 164 1708 c 0
EndSplineSet
Validated: 1
EndChar

StartChar: uniE025
Encoding: 57381 57381 37
Width: 1479
VWidth: 0
Flags: HW
LayerCount: 2
Back
Fore
SplineSet
976 1356 m 1
 1449 1356 l 1
 1449 1319 l 1
 1423 1319 l 2
 1406 1319 1380 1311 1347 1296 c 0
 1314 1281 1283 1259 1256 1230 c 0
 1229 1201 1195 1155 1155 1090 c 2
 828 575 l 1
 828 235 l 2
 828 152 837 100 856 79 c 0
 881 51 921 37 976 37 c 2
 1020 37 l 1
 1020 0 l 1
 444 0 l 1
 444 37 l 1
 492 37 l 2
 549 37 590 54 614 89 c 0
 629 110 636 159 636 235 c 2
 636 556 l 1
 264 1124 l 2
 220 1191 190 1232 174 1249 c 0
 159 1266 126 1286 77 1309 c 0
 64 1316 44 1319 19 1319 c 1
 19 1356 l 1
 599 1356 l 1
 599 1319 l 1
 569 1319 l 2
 538 1319 509 1312 482 1297 c 0
 456 1282 443 1260 443 1231 c 0
 443 1207 463 1164 504 1101 c 2
 787 664 l 1
 1053 1082 l 2
 1093 1145 1113 1191 1113 1222 c 0
 1113 1241 1108 1257 1098 1272 c 0
 1089 1287 1075 1298 1057 1306 c 0
 1039 1315 1012 1319 976 1319 c 1
 976 1356 l 1
936 1708 m 0
 966 1708 992 1697 1012 1676 c 0
 1034 1655 1044 1629 1044 1599 c 0
 1044 1569 1034 1544 1012 1522 c 0
 992 1502 966 1491 936 1491 c 0
 906 1491 880 1502 859 1522 c 0
 838 1544 827 1569 827 1599 c 0
 827 1629 838 1655 859 1676 c 0
 880 1697 906 1708 936 1708 c 0
583 1708 m 0
 614 1708 640 1697 660 1676 c 0
 682 1655 692 1629 692 1599 c 0
 692 1569 681 1544 660 1522 c 0
 639 1502 613 1491 584 1491 c 0
 554 1491 528 1502 507 1522 c 0
 486 1544 475 1569 475 1599 c 0
 475 1629 486 1655 506 1676 c 0
 528 1697 553 1708 583 1708 c 0
EndSplineSet
Validated: 1
EndChar

StartChar: uniE026
Encoding: 57382 57382 38
Width: 1071
VWidth: 0
Flags: HW
LayerCount: 2
Back
Fore
SplineSet
877 943 m 1
 877 795 l 1
 877 263 l 2
 878 214 880 182 884 167 c 0
 889 143 897 126 908 117 c 0
 919 108 931 103 946 103 c 0
 964 103 988 109 1018 120 c 1
 1029 85 l 1
 757 -28 l 1
 711 -28 l 1
 711 90 l 1
 630 11 540 -28 442 -28 c 0
 329 -28 236 20 165 115 c 0
 100 202 68 303 68 420 c 0
 68 554 108 673 187 776 c 0
 273 888 381 944 511 944 c 0
 584 944 645 925 696 888 c 1
 833 943 l 1
 877 943 l 1
499 882 m 0
 414 882 349 837 304 746 c 0
 269 675 251 592 251 499 c 0
 251 396 272 306 315 227 c 0
 367 130 440 82 535 82 c 0
 598 82 656 109 711 164 c 1
 711 560 l 2
 711 775 640 882 499 882 c 0
EndSplineSet
Validated: 1
EndChar

StartChar: uniE027
Encoding: 57383 57383 39
Width: 1479
VWidth: 0
Flags: HW
LayerCount: 2
Back
Fore
SplineSet
490 943 m 1
 561 943 623 928 676 899 c 0
 731 868 774 829 806 779 c 1
 814 789 821 799 829 808 c 0
 907 898 1000 943 1109 943 c 0
 1191 943 1258 919 1311 871 c 0
 1363 824 1390 774 1390 723 c 0
 1390 698 1382 677 1367 661 c 0
 1353 646 1332 638 1305 638 c 0
 1270 638 1243 651 1224 676 c 0
 1214 690 1207 717 1204 756 c 0
 1201 795 1188 825 1167 846 c 0
 1146 866 1117 876 1079 876 c 0
 1019 876 970 851 933 802 c 0
 884 737 859 650 859 543 c 0
 859 535 860 528 860 520 c 1
 1159 520 l 1
 1159 455 l 1
 865 455 l 1
 875 381 897 314 933 253 c 0
 981 170 1047 128 1130 128 c 0
 1189 128 1243 150 1290 195 c 0
 1323 226 1355 281 1387 362 c 1
 1413 348 l 1
 1391 227 1347 134 1282 69 c 0
 1216 4 1144 -28 1065 -28 c 0
 970 -28 888 16 818 103 c 0
 811 111 805 120 799 129 c 1
 758 78 712 39 660 12 c 0
 607 -14 549 -28 484 -28 c 0
 367 -28 268 15 187 100 c 0
 107 186 67 300 67 443 c 0
 67 596 108 717 190 808 c 0
 273 898 373 943 490 943 c 1
 490 943 l 1
453 888 m 0
 429 888 400 879 368 862 c 0
 334 844 309 814 291 771 c 0
 266 716 254 638 254 539 c 0
 254 367 288 232 356 133 c 0
 397 73 448 43 509 43 c 0
 568 43 617 68 656 117 c 0
 696 166 715 253 715 378 c 0
 715 533 692 657 648 750 c 0
 602 842 538 888 453 888 c 0
EndSplineSet
Validated: 1
EndChar

StartChar: uniE028
Encoding: 57384 57384 40
Width: 1042
VWidth: 0
Flags: HW
LayerCount: 2
Back
Fore
SplineSet
267 1432 m 1
 312 1432 l 1
 312 1378 l 1
 368 1413 436 1430 516 1430 c 0
 622 1430 710 1403 782 1347 c 0
 854 1291 890 1212 890 1109 c 0
 890 1039 870 976 830 921 c 1
 828 921 l 1
 801 888 757 858 696 832 c 1
 786 805 854 759 900 693 c 0
 922 662 938 626 948 586 c 0
 965 541 974 492 974 438 c 0
 974 344 951 261 906 187 c 0
 861 114 809 61 750 30 c 0
 691 -2 621 -17 539 -17 c 0
 446 -17 370 18 312 87 c 1
 312 -219 l 2
 312 -276 316 -314 324 -333 c 0
 333 -352 346 -366 363 -376 c 0
 380 -385 413 -390 460 -390 c 1
 460 -426 l 1
 11 -426 l 1
 11 -390 l 1
 53 -390 82 -386 97 -377 c 0
 112 -368 124 -354 133 -334 c 0
 142 -314 146 -276 146 -219 c 2
 146 -121 l 2
 146 269 146 659 146 1049 c 0
 146 1152 144 1216 139 1240 c 0
 134 1263 127 1279 116 1288 c 0
 106 1297 93 1301 77 1301 c 0
 60 1301 38 1296 11 1285 c 1
 -6 1320 l 1
 267 1432 l 1
520 1361 m 0
 473 1361 433 1348 399 1321 c 0
 366 1294 343 1263 330 1226 c 0
 320 1198 314 1156 312 1101 c 2
 312 176 l 1
 364 91 436 49 528 49 c 0
 618 49 685 82 727 148 c 0
 769 213 790 293 790 387 c 0
 790 458 783 536 735 634 c 0
 684 738 603 778 504 784 c 1
 504 841 l 1
 575 841 629 862 665 904 c 0
 700 945 718 1011 718 1125 c 0
 718 1128 718 1131 718 1134 c 1
 710 1216 693 1261 665 1294 c 0
 628 1339 580 1361 520 1361 c 0
EndSplineSet
Validated: 1
EndChar

StartChar: uniE029
Encoding: 57385 57385 41
Width: 1042
VWidth: 0
Flags: HW
LayerCount: 2
Back
Fore
SplineSet
150 654 m 1
 227 847 356 943 538 943 c 0
 665 943 770 895 850 800 c 0
 932 705 972 596 972 473 c 0
 972 346 931 231 849 128 c 0
 767 24 656 -28 516 -28 c 0
 373 -28 265 31 190 150 c 0
 115 268 78 412 78 582 c 0
 78 714 97 837 136 952 c 0
 175 1066 215 1151 258 1208 c 0
 301 1265 350 1306 406 1332 c 0
 462 1358 561 1372 703 1373 c 0
 805 1374 867 1377 888 1382 c 0
 909 1387 930 1400 949 1422 c 1
 988 1422 l 1
 966 1357 939 1310 908 1282 c 0
 877 1254 843 1235 807 1226 c 0
 771 1216 707 1210 614 1207 c 0
 514 1204 445 1197 406 1184 c 0
 368 1172 328 1142 287 1094 c 0
 246 1047 214 984 190 907 c 0
 168 830 154 745 150 654 c 1
504 875 m 0
 437 875 383 847 340 792 c 0
 297 737 276 650 276 531 c 0
 276 370 305 249 362 166 c 0
 419 83 486 42 561 42 c 0
 630 42 685 71 724 128 c 0
 764 186 784 278 784 405 c 0
 784 540 758 652 706 741 c 0
 654 830 587 875 504 875 c 0
EndSplineSet
Validated: 1
EndChar

StartChar: uniE02A
Encoding: 57386 57386 42
Width: 1042
VWidth: 0
Flags: HW
LayerCount: 2
Back
Fore
SplineSet
1023 878 m 1
 984 878 955 870 936 855 c 0
 907 831 879 787 853 723 c 2
 597 108 l 1
 597 -194 l 2
 597 -270 601 -318 608 -337 c 0
 613 -352 625 -364 642 -375 c 0
 666 -390 694 -397 727 -397 c 2
 768 -397 l 1
 768 -438 l 1
 253 -438 l 1
 253 -397 l 1
 285 -397 l 2
 364 -397 409 -369 422 -314 c 0
 425 -302 426 -262 426 -194 c 2
 426 89 l 1
 163 734 l 2
 144 783 125 817 107 836 c 0
 81 863 46 877 2 878 c 1
 2 916 l 1
 444 916 l 1
 444 878 l 1
 363 873 323 852 323 816 c 0
 323 806 328 786 338 757 c 2
 555 197 l 1
 771 742 l 2
 783 775 789 800 789 817 c 0
 789 831 782 845 768 858 c 0
 759 867 737 873 704 875 c 0
 699 876 690 877 677 878 c 1
 677 916 l 1
 1023 916 l 1
 1023 878 l 1
EndSplineSet
Validated: 1
EndChar

StartChar: uniE02B
Encoding: 57387 57387 43
Width: 797
VWidth: 0
Flags: HW
LayerCount: 2
Back
Fore
SplineSet
697 678 m 0
 697 609 673 552 626 507 c 0
 596 478 541 443 462 404 c 0
 383 365 330 335 305 316 c 0
 248 273 220 224 220 169 c 0
 220 128 236 95 268 68 c 0
 298 43 334 31 376 31 c 0
 453 31 517 60 568 117 c 0
 613 168 644 233 660 313 c 1
 693 313 l 1
 693 -14 l 1
 660 -14 l 1
 651 3 639 12 624 12 c 0
 611 12 593 9 570 2 c 0
 499 -18 435 -28 378 -28 c 0
 297 -28 226 -2 166 49 c 0
 103 103 72 170 72 250 c 0
 72 358 140 445 275 511 c 2
 421 582 l 2
 526 633 579 694 579 765 c 0
 579 802 561 831 526 854 c 0
 496 874 462 884 423 884 c 0
 350 884 293 859 252 809 c 0
 221 772 195 712 174 631 c 1
 141 631 l 1
 141 943 l 1
 174 943 l 1
 187 918 202 905 220 905 c 0
 231 905 254 910 288 920 c 0
 339 935 383 943 419 943 c 0
 498 943 564 919 617 871 c 0
 670 821 697 757 697 678 c 0
EndSplineSet
Validated: 1
EndChar

StartChar: uniE02C
Encoding: 57388 57388 44
Width: 1024
VWidth: 0
Flags: HW
LayerCount: 2
Back
Fore
SplineSet
277 1286 m 1
 790 848 l 2
 810 831 829 810 848 787 c 0
 919 697 955 593 955 476 c 0
 955 394 935 311 896 226 c 0
 856 142 802 79 733 36 c 0
 664 -7 587 -28 502 -28 c 0
 364 -28 254 27 172 137 c 0
 104 230 69 334 69 450 c 0
 69 534 90 618 132 701 c 0
 174 784 228 846 297 886 c 0
 356 920 419 940 485 944 c 1
 75 1291 l 1
 75 1356 l 1
 820 1356 l 1
 825 1102 l 1
 785 1102 l 1
 783 1151 772 1193 754 1226 c 0
 741 1249 725 1265 705 1274 c 0
 685 1282 643 1286 578 1286 c 2
 277 1286 l 1
482 880 m 0
 447 880 411 869 375 848 c 0
 339 827 311 791 289 738 c 0
 267 685 255 617 255 534 c 0
 255 401 282 285 335 188 c 0
 388 92 458 43 545 43 c 0
 610 43 663 70 706 123 c 0
 748 177 768 268 768 399 c 0
 768 562 733 690 663 784 c 0
 616 848 555 880 482 880 c 0
EndSplineSet
Validated: 1
EndChar

StartChar: uniE02D
Encoding: 57389 57389 45
Width: 1024
VWidth: 0
Flags: HW
LayerCount: 2
Back
Fore
SplineSet
852 858 m 0
 917 725 949 597 949 474 c 0
 949 381 930 296 892 218 c 0
 853 141 799 80 730 37 c 0
 661 -6 584 -28 499 -28 c 0
 380 -28 278 16 194 106 c 0
 110 194 68 306 68 441 c 0
 68 582 114 703 206 806 c 0
 285 892 379 935 488 935 c 0
 521 935 550 931 576 922 c 0
 597 915 624 900 657 876 c 1
 604 986 543 1086 447 1195 c 0
 383 1268 348 1297 326 1316 c 0
 303 1334 274 1355 237 1379 c 1
 264 1422 l 1
 344 1382 429 1334 538 1244 c 0
 695 1115 787 990 852 858 c 0
479 874 m 0
 415 874 361 847 318 793 c 0
 275 739 253 647 253 518 c 0
 253 427 266 344 294 268 c 0
 320 191 357 134 403 98 c 0
 449 60 497 42 547 42 c 0
 608 42 659 68 701 121 c 0
 743 174 764 259 764 377 c 0
 764 527 738 647 685 738 c 0
 632 829 564 874 479 874 c 0
EndSplineSet
Validated: 1
EndChar

StartChar: uniE02E
Encoding: 57390 57390 46
Width: 860
VWidth: 0
Flags: HW
LayerCount: 2
Back
Fore
SplineSet
612 778 m 0
 580 848 532 885 465 885 c 0
 464 885 462 885 460 885 c 0
 411 885 370 869 338 838 c 0
 304 807 288 768 288 721 c 0
 288 658 311 607 357 570 c 0
 400 535 453 518 518 518 c 1
 518 460 l 1
 347 452 261 382 261 249 c 0
 261 190 278 142 314 102 c 0
 348 64 395 44 453 44 c 0
 551 44 655 86 764 171 c 1
 790 145 l 1
 670 30 545 -28 415 -28 c 0
 324 -28 247 -7 183 35 c 0
 108 84 71 151 71 238 c 0
 71 371 162 457 345 495 c 1
 188 542 110 617 110 720 c 0
 110 794 145 851 214 892 c 0
 271 926 340 941 420 944 c 0
 441 944 462 943 483 943 c 0
 552 943 614 933 671 913 c 0
 750 884 790 842 790 785 c 0
 790 762 781 742 764 726 c 0
 747 708 727 700 704 700 c 0
 667 700 636 726 612 778 c 0
EndSplineSet
Validated: 1
EndChar

StartChar: uniE02F
Encoding: 57391 57391 47
Width: 879
VWidth: 0
Flags: HW
LayerCount: 2
Back
Fore
SplineSet
507 943 m 0
 597 943 671 919 729 872 c 0
 787 824 816 774 816 723 c 0
 816 698 808 677 792 662 c 0
 775 646 752 638 723 638 c 0
 684 638 654 651 634 676 c 0
 623 690 615 717 612 756 c 0
 608 795 594 825 571 846 c 0
 548 866 515 876 474 876 c 0
 407 876 354 851 313 802 c 0
 259 737 232 650 232 543 c 0
 232 535 232 528 232 520 c 1
 562 520 l 1
 562 455 l 1
 238 455 l 1
 249 381 274 314 312 254 c 0
 366 170 439 128 530 128 c 0
 595 128 654 150 706 195 c 0
 743 226 778 281 813 362 c 1
 842 348 l 1
 817 227 769 134 697 70 c 0
 625 4 545 -28 458 -28 c 0
 354 -28 263 16 186 103 c 0
 109 190 70 308 70 457 c 0
 70 601 113 718 198 808 c 0
 284 898 387 943 507 943 c 0
EndSplineSet
Validated: 1
EndChar

StartChar: uniE030
Encoding: 57392 57392 48
Width: 909
VWidth: 0
Flags: HW
LayerCount: 2
Back
Fore
SplineSet
839 879 m 1
 471 405 l 1
 563 388 640 347 701 281 c 0
 770 205 805 110 805 -3 c 0
 805 -126 773 -228 709 -309 c 0
 638 -398 541 -442 417 -442 c 0
 316 -442 230 -403 159 -326 c 0
 96 -258 54 -171 33 -66 c 1
 62 -52 l 1
 129 -208 224 -286 345 -286 c 0
 444 -286 520 -253 573 -188 c 0
 620 -130 643 -53 643 43 c 0
 643 248 516 350 262 350 c 1
 262 386 l 1
 622 846 l 1
 312 846 l 2
 260 846 227 845 212 842 c 0
 177 835 152 816 136 786 c 0
 118 753 108 711 105 662 c 1
 65 662 l 1
 71 916 l 1
 839 916 l 1
 839 879 l 1
EndSplineSet
Validated: 1
EndChar

StartChar: uniE031
Encoding: 57393 57393 49
Width: 809
VWidth: 0
Flags: HW
LayerCount: 2
Back
Fore
SplineSet
84 629 m 1
 84 916 l 1
 126 916 l 1
 138 905 151 900 166 900 c 0
 177 900 202 905 240 916 c 0
 303 934 355 943 395 943 c 0
 483 943 556 923 616 882 c 0
 674 841 704 787 704 720 c 0
 704 617 626 542 469 495 c 1
 652 457 743 371 743 238 c 0
 743 168 714 106 655 52 c 0
 596 -1 511 -28 399 -28 c 0
 326 -28 261 -15 206 12 c 0
 150 38 89 82 24 145 c 1
 50 171 l 1
 159 86 263 44 361 44 c 0
 417 44 463 63 499 101 c 0
 535 139 553 188 553 249 c 0
 553 382 467 452 296 460 c 1
 296 518 l 1
 377 518 435 540 472 582 c 0
 508 626 526 672 526 721 c 0
 526 764 510 802 480 835 c 0
 448 868 407 884 356 884 c 0
 237 884 159 799 120 629 c 1
 84 629 l 1
EndSplineSet
Validated: 1
EndChar

StartChar: uniE032
Encoding: 57394 57394 50
Width: 1024
VWidth: 0
Flags: HW
LayerCount: 2
Back
Fore
SplineSet
1015 -438 m 1
 562 -438 l 1
 562 -402 l 1
 581 -402 l 2
 651 -402 693 -376 706 -325 c 0
 709 -315 710 -284 710 -231 c 2
 710 582 l 2
 710 653 703 706 690 740 c 0
 668 793 627 820 568 820 c 0
 489 820 410 777 331 690 c 1
 331 207 l 2
 331 145 335 107 342 92 c 0
 360 55 406 36 480 36 c 1
 480 0 l 1
 27 0 l 1
 27 36 l 1
 47 36 l 2
 99 36 133 53 149 86 c 0
 160 108 166 148 166 207 c 2
 166 547 l 2
 166 697 156 780 136 797 c 0
 125 806 111 810 94 810 c 0
 75 810 53 805 27 795 c 1
 12 831 l 1
 288 943 l 1
 331 943 l 1
 331 749 l 1
 438 878 541 943 638 943 c 0
 741 943 813 889 853 782 c 0
 868 743 875 681 875 598 c 2
 875 -231 l 2
 875 -316 892 -369 925 -388 c 0
 942 -397 972 -402 1015 -402 c 1
 1015 -438 l 1
EndSplineSet
Validated: 1
EndChar

StartChar: uniE033
Encoding: 57395 57395 51
Width: 1024
VWidth: 0
Flags: HW
LayerCount: 2
Back
Fore
SplineSet
953 475 m 0
 953 390 934 308 895 228 c 0
 854 142 800 78 731 36 c 0
 662 -7 586 -28 501 -28 c 0
 363 -28 253 27 172 137 c 0
 103 230 69 334 69 449 c 0
 69 532 89 614 129 695 c 0
 172 781 227 844 295 884 c 0
 363 923 435 943 512 943 c 0
 651 943 762 890 846 785 c 0
 917 695 953 592 953 475 c 0
760 520 m 1
 748 613 722 691 681 755 c 0
 630 837 563 878 481 878 c 0
 392 878 327 831 288 736 c 0
 266 684 255 620 255 543 c 0
 255 540 255 536 255 533 c 2
 255 520 l 1
 760 520 l 1
767 398 m 0
 767 411 766 430 765 455 c 1
 258 455 l 1
 267 355 292 266 335 188 c 0
 388 91 457 43 544 43 c 0
 693 43 767 161 767 398 c 0
EndSplineSet
Validated: 1
EndChar

StartChar: uniE034
Encoding: 57396 57396 52
Width: 569
VWidth: 0
Flags: HW
LayerCount: 2
Back
Fore
SplineSet
515 0 m 1
 54 0 l 1
 54 37 l 1
 99 39 126 41 134 42 c 0
 163 48 183 63 195 86 c 0
 206 107 211 150 211 215 c 2
 211 701 l 2
 211 750 210 780 208 793 c 0
 202 832 187 856 162 866 c 0
 145 873 109 877 54 878 c 1
 54 916 l 1
 515 916 l 1
 515 878 l 1
 444 878 402 860 388 825 c 0
 381 806 377 765 377 701 c 2
 377 215 l 2
 377 163 378 133 379 124 c 0
 384 89 400 65 425 52 c 0
 446 42 476 37 515 37 c 1
 515 0 l 1
EndSplineSet
Validated: 1
EndChar

StartChar: uniE035
Encoding: 57397 57397 53
Width: 607
VWidth: 0
Flags: HW
LayerCount: 2
Back
Fore
SplineSet
562 879 m 1
 529 879 l 2
 492 879 465 868 448 846 c 0
 437 831 431 797 431 742 c 2
 431 306 l 2
 431 217 412 144 373 86 c 0
 325 15 254 -21 161 -21 c 0
 128 -21 97 -11 70 9 c 0
 40 32 25 60 25 93 c 0
 25 140 48 164 94 164 c 0
 123 164 151 134 176 74 c 0
 187 49 200 37 216 37 c 0
 249 37 266 71 266 139 c 2
 266 742 l 2
 266 808 254 848 229 862 c 0
 209 873 188 879 167 879 c 2
 134 879 l 1
 134 916 l 1
 562 916 l 1
 562 879 l 1
EndSplineSet
Validated: 1
EndChar

StartChar: uniE036
Encoding: 57398 57398 54
Width: 1032
VWidth: 0
Flags: HW
LayerCount: 2
Back
Fore
SplineSet
619 130 m 0
 607 145 605 148 598 157 c 0
 513 268 342 490 342 490 c 1
 342 174 l 2
 342 108 354 68 379 54 c 0
 399 43 420 37 441 37 c 2
 472 37 l 1
 472 0 l 1
 341 0 l 1
 175 0 l 1
 44 0 l 1
 44 37 l 1
 76 37 l 2
 114 37 141 48 158 70 c 0
 169 84 175 117 175 169 c 2
 175 560 l 1
 175 560 l 1
 175 742 l 2
 175 788 172 819 166 834 c 0
 154 864 124 879 76 879 c 2
 44 879 l 1
 44 916 l 1
 472 916 l 1
 472 879 l 1
 441 879 l 2
 392 879 362 863 350 831 c 0
 345 817 342 787 342 742 c 2
 342 507 l 1
 601 781 l 2
 704 889 801 943 892 943 c 0
 927 943 956 935 978 918 c 0
 999 901 1010 880 1010 853 c 0
 1010 827 1002 806 984 791 c 0
 968 776 948 768 926 768 c 0
 907 768 881 777 849 794 c 0
 817 811 792 820 775 820 c 0
 740 820 702 797 660 752 c 2
 485 563 l 1
 815 149 l 2
 872 77 948 40 1043 37 c 1
 1043 0 l 1
 930 0 l 1
 719 0 l 1
 570 0 l 1
 570 37 l 1
 619 37 644 51 644 80 c 0
 644 93 634 109 619 130 c 0
EndSplineSet
Validated: 1
EndChar

StartChar: uniE037
Encoding: 57399 57399 55
Width: 1096
VWidth: 0
Flags: HW
LayerCount: 2
Back
Fore
SplineSet
350 282 m 1
 746 740 l 1
 745 791 735 827 717 847 c 0
 699 867 668 877 624 878 c 1
 624 916 l 1
 1050 916 l 1
 1050 878 l 1
 1005 878 975 874 960 864 c 0
 945 856 933 844 924 831 c 0
 915 818 911 774 911 701 c 2
 911 215 l 2
 911 144 915 102 922 88 c 0
 929 75 941 63 956 52 c 0
 972 42 1003 37 1050 37 c 1
 1050 0 l 1
 607 0 l 1
 607 37 l 1
 662 37 699 47 718 68 c 0
 737 88 746 137 746 215 c 2
 746 646 l 1
 350 187 l 1
 351 130 359 91 374 70 c 0
 389 49 420 38 469 37 c 1
 469 0 l 1
 46 0 l 1
 46 37 l 1
 105 37 143 48 160 70 c 0
 177 91 185 140 185 215 c 2
 185 701 l 2
 185 772 181 814 174 828 c 0
 167 840 155 852 140 862 c 0
 125 873 93 878 46 878 c 1
 46 916 l 1
 489 916 l 1
 489 878 l 1
 444 878 414 874 399 864 c 0
 384 856 372 844 363 831 c 0
 354 818 350 774 350 701 c 2
 350 282 l 1
EndSplineSet
Validated: 1
EndChar

StartChar: uniE038
Encoding: 57400 57400 56
Width: 1024
VWidth: 0
Flags: HW
LayerCount: 2
Back
Fore
SplineSet
81 1356 m 1
 512 1356 l 1
 512 1319 l 1
 484 1319 l 2
 431 1319 404 1296 404 1249 c 0
 404 1227 411 1199 425 1166 c 0
 565 834 705 503 845 171 c 0
 870 112 901 73 938 54 c 0
 950 48 972 42 1005 37 c 1
 1005 0 l 1
 574 0 l 1
 574 37 l 1
 602 37 l 2
 656 37 682 60 682 107 c 0
 682 129 675 157 661 190 c 2
 559 433 l 1
 448 695 l 1
 234 171 l 2
 219 134 211 105 211 86 c 0
 211 77 214 69 219 63 c 0
 232 46 264 37 316 37 c 1
 316 0 l 1
 17 0 l 1
 17 37 l 1
 52 40 76 47 89 58 c 0
 111 77 132 111 152 158 c 2
 411 783 l 1
 241 1185 l 2
 216 1244 185 1283 148 1302 c 0
 137 1308 114 1314 81 1319 c 1
 81 1356 l 1
EndSplineSet
EndChar

StartChar: uniE039
Encoding: 57401 57401 57
Width: 1296
VWidth: 0
Flags: HW
LayerCount: 2
Back
Fore
SplineSet
656 239 m 1
 942 916 l 1
 1251 916 l 1
 1251 878 l 1
 1206 878 1176 874 1160 864 c 0
 1146 856 1134 844 1125 831 c 0
 1116 818 1112 774 1112 701 c 2
 1112 215 l 2
 1112 152 1115 111 1122 92 c 0
 1128 74 1141 60 1160 51 c 0
 1180 42 1210 37 1251 37 c 1
 1251 0 l 1
 808 0 l 1
 808 37 l 1
 863 37 899 47 918 68 c 0
 937 88 946 137 946 215 c 2
 946 766 l 1
 622 0 l 1
 587 0 l 1
 257 766 l 1
 257 -223 l 2
 257 -286 260 -327 267 -346 c 0
 274 -364 287 -378 306 -387 c 0
 325 -396 355 -401 396 -401 c 1
 396 -438 l 1
 46 -438 l 1
 46 -401 l 1
 105 -401 143 -390 160 -368 c 0
 177 -347 185 -298 185 -223 c 2
 185 701 l 2
 185 772 181 814 174 828 c 0
 167 840 155 852 140 862 c 0
 125 873 93 878 46 878 c 1
 46 916 l 1
 368 916 l 1
 656 239 l 1
EndSplineSet
Validated: 1
EndChar

StartChar: uniE03A
Encoding: 57402 57402 58
Width: 1024
VWidth: 0
Flags: HW
LayerCount: 2
Back
Fore
SplineSet
17 916 m 1
 448 916 l 1
 448 879 l 1
 420 879 l 2
 394 879 374 873 360 860 c 0
 347 847 340 830 340 809 c 0
 340 786 347 758 361 726 c 2
 574 220 l 1
 788 745 l 2
 803 782 811 811 811 830 c 0
 811 839 808 847 803 853 c 0
 796 863 786 870 775 874 c 0
 764 877 741 879 706 879 c 1
 706 916 l 1
 1005 916 l 1
 1005 879 l 1
 970 876 946 869 933 858 c 0
 910 838 889 805 870 758 c 2
 545 -28 l 1
 504 -28 l 1
 177 745 l 2
 162 781 148 807 135 822 c 0
 122 838 105 851 84 862 c 0
 73 868 50 874 17 879 c 1
 17 916 l 1
EndSplineSet
Validated: 1
EndChar

StartChar: uniE03B
Encoding: 57403 57403 59
Width: 1479
VWidth: 0
Flags: HW
LayerCount: 2
Back
Fore
SplineSet
13 916 m 1
 397 916 l 1
 397 879 l 1
 362 876 338 870 328 860 c 0
 316 850 311 836 311 817 c 0
 311 796 317 771 328 742 c 2
 524 215 l 1
 721 644 l 1
 669 779 l 2
 653 819 632 847 606 862 c 0
 591 871 564 877 524 879 c 1
 524 916 l 1
 960 916 l 1
 960 879 l 1
 912 877 878 868 858 853 c 0
 845 842 838 825 838 802 c 0
 838 789 841 775 846 761 c 2
 1054 235 l 1
 1247 742 l 2
 1260 778 1267 807 1267 828 c 0
 1267 841 1260 852 1248 862 c 0
 1234 872 1209 878 1171 879 c 1
 1171 916 l 1
 1460 916 l 1
 1460 879 l 1
 1402 870 1359 831 1332 761 c 2
 1096 153 l 1
 1096 -194 l 2
 1096 -270 1100 -318 1107 -337 c 0
 1112 -352 1124 -364 1141 -375 c 0
 1165 -390 1193 -397 1226 -397 c 2
 1267 -397 l 1
 1267 -438 l 1
 752 -438 l 1
 752 -397 l 1
 784 -397 l 2
 863 -397 908 -369 921 -314 c 0
 924 -302 925 -262 925 -194 c 2
 925 125 l 1
 756 557 l 1
 489 -28 l 1
 452 -28 l 1
 158 742 l 2
 139 791 120 824 101 840 c 0
 82 858 53 870 13 879 c 1
 13 916 l 1
EndSplineSet
Validated: 1
EndChar

StartChar: uniE03C
Encoding: 57404 57404 60
Width: 1024
VWidth: 0
Flags: HW
LayerCount: 2
Back
Fore
SplineSet
512 943 m 0
 651 943 762 890 846 785 c 0
 917 695 953 592 953 475 c 0
 953 393 933 310 894 226 c 0
 855 142 800 79 732 36 c 0
 662 -7 586 -28 501 -28 c 0
 363 -28 253 27 172 137 c 0
 103 230 69 334 69 449 c 0
 69 533 90 616 132 700 c 0
 173 782 228 844 296 884 c 0
 364 923 436 943 512 943 c 0
481 878 m 0
 446 878 410 868 374 846 c 0
 339 826 310 789 288 736 c 0
 266 683 255 616 255 533 c 0
 255 400 282 285 334 188 c 0
 388 91 457 43 544 43 c 0
 609 43 662 70 704 123 c 0
 746 176 767 268 767 398 c 0
 767 561 732 689 662 782 c 0
 615 846 554 878 481 878 c 0
EndSplineSet
Validated: 1
EndChar

StartChar: uniE03D
Encoding: 57405 57405 61
Width: 1293
VWidth: 0
Flags: HW
LayerCount: 2
Back
Fore
SplineSet
448 917 m 1
 1240 917 l 1
 1280 669 l 1
 1235 669 l 1
 1227 719 1214 758 1195 785 c 0
 1176 812 1155 830 1131 839 c 0
 1107 848 1066 852 1008 852 c 1
 1008 215 l 2
 1008 144 1012 102 1019 88 c 0
 1026 75 1038 63 1054 52 c 0
 1069 42 1100 37 1147 37 c 1
 1147 0 l 1
 704 0 l 1
 704 37 l 1
 759 37 796 47 815 68 c 0
 834 88 843 137 843 215 c 2
 843 851 l 1
 447 851 l 1
 447 215 l 2
 447 144 451 102 458 88 c 0
 465 75 477 63 492 52 c 0
 508 42 539 37 586 37 c 1
 586 0 l 1
 143 0 l 1
 143 37 l 1
 202 37 240 48 257 70 c 0
 274 91 282 140 282 215 c 2
 282 851 l 1
 225 851 186 848 165 840 c 0
 144 834 124 817 106 790 c 0
 86 764 70 723 57 668 c 1
 12 668 l 1
 50 916 l 1
 282 916 l 1
 455 916 l 1
 448 917 l 1
EndSplineSet
Validated: 1
EndChar

StartChar: uniE03E
Encoding: 57406 57406 62
Width: 1024
VWidth: 0
Flags: HW
LayerCount: 2
Back
Fore
SplineSet
-2 825 m 1
 280 939 l 1
 318 939 l 1
 318 725 l 1
 365 806 413 862 460 894 c 0
 508 927 558 943 611 943 c 0
 703 943 780 907 841 835 c 0
 916 747 954 632 954 491 c 0
 954 333 909 202 818 99 c 0
 743 14 649 -28 536 -28 c 0
 487 -28 444 -21 408 -7 c 0
 381 3 351 23 318 53 c 1
 318 -226 l 2
 318 -289 322 -328 330 -346 c 0
 337 -362 350 -376 370 -386 c 0
 388 -396 423 -401 473 -401 c 1
 473 -438 l 1
 -7 -438 l 1
 -7 -401 l 1
 18 -401 l 2
 20 -401 23 -401 25 -401 c 0
 59 -401 88 -394 112 -380 c 0
 125 -373 134 -361 142 -344 c 0
 148 -328 152 -287 152 -220 c 2
 152 646 l 2
 152 705 149 743 144 759 c 0
 139 775 130 787 118 795 c 0
 107 803 91 807 71 807 c 0
 55 807 35 802 10 793 c 1
 -2 825 l 1
318 666 m 1
 318 324 l 2
 318 250 321 201 327 178 c 0
 336 139 359 105 396 76 c 0
 432 47 478 32 533 32 c 0
 600 32 654 58 695 110 c 0
 749 178 776 274 776 397 c 0
 776 537 745 645 684 720 c 0
 641 772 591 798 532 798 c 0
 500 798 468 790 437 774 c 0
 413 762 373 726 318 666 c 1
EndSplineSet
Validated: 1
EndChar

StartChar: uniE03F
Encoding: 57407 57407 63
Width: 909
VWidth: 0
Flags: HW
LayerCount: 2
Back
Fore
SplineSet
746 -340 m 1
 746 -340 l 1
 684 -407 604 -442 508 -442 c 0
 505 -442 503 -442 500 -442 c 0
 490 -442 482 -442 474 -441 c 0
 397 -433 326 -399 276 -357 c 0
 220 -311 194 -266 194 -220 c 0
 194 -197 200 -181 214 -168 c 0
 227 -155 246 -148 273 -148 c 0
 309 -148 334 -160 351 -181 c 0
 359 -191 366 -216 370 -254 c 0
 374 -292 386 -323 408 -346 c 0
 436 -376 470 -377 504 -382 c 0
 516 -384 526 -385 536 -385 c 0
 633 -385 711 -300 711 -187 c 0
 711 -159 706 -133 697 -108 c 0
 690 -88 682 -69 669 -52 c 0
 633 -3 549 62 416 144 c 0
 307 210 233 261 194 297 c 0
 154 332 123 374 102 423 c 0
 81 471 70 521 70 574 c 0
 70 675 104 761 172 834 c 0
 236 902 317 938 416 943 c 0
 422 943 428 943 434 943 c 0
 463 943 493 941 520 939 c 0
 601 933 665 910 719 866 c 0
 777 818 806 768 806 717 c 0
 806 691 798 671 782 655 c 0
 765 640 742 632 713 632 c 0
 674 632 644 645 624 670 c 0
 612 684 605 711 602 750 c 0
 598 784 591 813 563 837 c 0
 519 876 476 888 431 888 c 0
 316 888 222 788 222 649 c 0
 222 648 222 646 222 645 c 0
 223 617 225 604 240 566 c 0
 260 517 286 486 319 458 c 0
 342 438 402 397 502 333 c 0
 601 270 672 219 714 181 c 0
 756 143 787 102 809 56 c 0
 831 10 842 -40 842 -95 c 0
 842 -190 810 -272 746 -340 c 1
EndSplineSet
Validated: 1
EndChar

StartChar: uniE040
Encoding: 57408 57408 64
Width: 909
VWidth: 0
Flags: HW
LayerCount: 2
Back
Fore
SplineSet
842 348 m 1
 817 227 769 134 697 70 c 0
 625 4 545 -28 458 -28 c 0
 354 -28 263 16 186 103 c 0
 109 190 70 308 70 457 c 0
 70 601 113 718 198 808 c 0
 284 898 387 943 507 943 c 0
 597 943 671 919 729 872 c 0
 787 824 816 774 816 723 c 0
 816 698 808 677 792 662 c 0
 775 646 752 638 723 638 c 0
 684 638 654 651 634 676 c 0
 623 690 615 717 612 756 c 0
 608 795 594 825 571 846 c 0
 548 866 515 876 474 876 c 0
 407 876 354 851 313 802 c 0
 259 737 232 650 232 543 c 0
 232 434 259 337 312 254 c 0
 366 170 439 128 530 128 c 0
 595 128 654 150 706 195 c 0
 743 226 778 281 813 362 c 1
 842 348 l 1
EndSplineSet
Validated: 1
EndChar

StartChar: uniE041
Encoding: 57409 57409 65
Width: 895
VWidth: 0
Flags: HW
LayerCount: 2
Back
Fore
SplineSet
50 916 m 1
 842 916 l 1
 882 668 l 1
 837 668 l 1
 829 718 816 757 797 784 c 0
 778 811 757 829 733 838 c 0
 709 847 668 851 610 851 c 2
 530 851 l 1
 530 215 l 2
 530 147 534 104 542 86 c 0
 551 67 564 55 583 49 c 0
 602 43 644 39 711 37 c 1
 711 0 l 1
 213 0 l 1
 213 37 l 1
 277 38 318 49 336 68 c 0
 355 87 364 136 364 215 c 2
 364 851 l 1
 282 851 l 2
 225 851 186 848 165 840 c 0
 144 834 124 817 106 790 c 0
 86 764 70 723 57 668 c 1
 12 668 l 1
 50 916 l 1
EndSplineSet
Validated: 1
EndChar

StartChar: uniE042
Encoding: 57410 57410 66
Width: 1100
VWidth: 0
Flags: HW
LayerCount: 2
Back
Fore
SplineSet
1055 879 m 1
 1021 879 l 2
 985 879 957 864 938 834 c 0
 928 819 923 786 923 737 c 2
 923 378 l 2
 923 244 897 146 846 83 c 0
 791 14 699 -20 571 -20 c 0
 424 -20 320 17 258 92 c 0
 205 157 178 259 178 397 c 2
 178 742 l 2
 178 789 173 822 163 840 c 0
 149 866 121 879 79 879 c 2
 45 879 l 1
 45 916 l 1
 475 916 l 1
 475 879 l 1
 439 879 l 2
 401 879 374 867 358 844 c 0
 347 829 342 795 342 742 c 2
 342 368 l 2
 342 267 357 192 386 143 c 0
 423 81 488 50 579 50 c 0
 690 50 765 83 806 149 c 0
 836 198 851 281 851 396 c 2
 851 742 l 2
 851 799 845 835 832 850 c 0
 815 869 788 879 753 879 c 2
 719 879 l 1
 719 916 l 1
 1055 916 l 1
 1055 879 l 1
EndSplineSet
Validated: 1
EndChar

StartChar: uniE043
Encoding: 57411 57411 67
Width: 1024
VWidth: 0
Flags: HW
LayerCount: 2
Back
Fore
SplineSet
12 916 m 1
 439 916 l 1
 439 879 l 1
 418 879 l 2
 388 879 366 872 350 860 c 0
 336 846 328 830 328 811 c 0
 328 785 339 749 361 703 c 2
 584 241 l 1
 789 747 l 2
 800 774 806 801 806 828 c 0
 806 840 804 849 799 855 c 0
 794 862 785 868 774 872 c 0
 763 877 743 879 714 879 c 1
 714 916 l 1
 1012 916 l 1
 1012 879 l 1
 987 876 968 871 955 863 c 0
 942 855 927 840 911 818 c 0
 905 809 894 783 877 741 c 2
 504 -173 l 2
 468 -262 421 -329 362 -374 c 0
 304 -419 248 -442 194 -442 c 0
 155 -442 122 -431 97 -408 c 0
 72 -385 59 -359 59 -330 c 0
 59 -302 68 -280 86 -262 c 0
 105 -246 130 -237 162 -237 c 0
 184 -237 214 -244 252 -259 c 0
 279 -269 295 -274 302 -274 c 0
 322 -274 344 -264 368 -243 c 0
 391 -222 415 -182 439 -123 c 2
 504 36 l 1
 175 727 l 2
 165 748 149 773 127 804 c 0
 110 827 97 843 86 851 c 0
 71 862 46 871 12 879 c 1
 12 916 l 1
EndSplineSet
Validated: 1
EndChar

StartChar: uniE044
Encoding: 57412 57412 68
Width: 1133
VWidth: 0
Flags: HW
LayerCount: 2
Back
Fore
SplineSet
1064 466 m 0
 1064 330 1025 218 948 131 c 0
 875 48 778 -2 657 -21 c 1
 657 -223 l 2
 657 -275 658 -305 659 -314 c 0
 664 -349 680 -373 705 -386 c 0
 726 -396 756 -401 795 -401 c 1
 795 -438 l 1
 334 -438 l 1
 334 -401 l 1
 379 -399 406 -397 414 -396 c 0
 443 -390 463 -375 475 -352 c 0
 486 -331 491 -288 491 -223 c 2
 491 -25 l 1
 362 -12 260 33 186 111 c 0
 108 194 69 307 69 449 c 0
 69 588 109 701 189 789 c 0
 265 872 366 922 491 938 c 1
 491 1207 l 2
 491 1256 490 1286 488 1299 c 0
 482 1338 467 1362 442 1372 c 0
 425 1379 389 1383 334 1384 c 1
 334 1422 l 1
 795 1422 l 1
 795 1384 l 1
 724 1384 682 1366 668 1331 c 0
 661 1312 657 1271 657 1207 c 2
 657 938 l 1
 782 923 880 877 951 799 c 0
 1026 716 1064 605 1064 466 c 0
878 382 m 0
 878 491 861 586 827 668 c 0
 788 762 732 825 657 856 c 1
 657 43 l 1
 804 72 878 185 878 382 c 0
491 53 m 1
 491 874 l 1
 414 863 354 825 313 762 c 0
 274 703 255 626 255 533 c 0
 255 420 273 322 309 239 c 0
 350 143 411 81 491 53 c 1
EndSplineSet
Validated: 1
EndChar

StartChar: uniE045
Encoding: 57413 57413 69
Width: 1071
VWidth: 0
Flags: HW
LayerCount: 2
Back
Fore
SplineSet
517 1390 m 1
 741 1390 l 1
 446 1045 l 1
 412 1045 l 1
 517 1390 l 1
511 944 m 0
 584 944 645 925 696 888 c 1
 833 943 l 1
 877 943 l 1
 877 795 l 1
 877 263 l 2
 878 214 880 182 884 166 c 0
 889 143 897 126 908 117 c 0
 919 108 931 103 946 103 c 0
 964 103 988 109 1018 120 c 1
 1029 85 l 1
 757 -28 l 1
 711 -28 l 1
 711 90 l 1
 630 11 540 -28 442 -28 c 0
 329 -28 236 20 165 115 c 0
 100 202 68 303 68 420 c 0
 68 554 108 673 187 776 c 0
 273 888 381 944 511 944 c 0
499 882 m 0
 414 882 349 837 304 746 c 0
 269 675 251 592 251 499 c 0
 251 396 272 306 315 227 c 0
 367 130 440 82 535 82 c 0
 598 82 656 109 711 164 c 1
 711 560 l 2
 711 775 640 882 499 882 c 0
EndSplineSet
Validated: 1
EndChar

StartChar: uniE046
Encoding: 57414 57414 70
Width: 1479
VWidth: 0
Flags: HW
LayerCount: 2
Back
Fore
SplineSet
490 943 m 1
 561 943 623 928 676 899 c 0
 731 868 774 829 806 779 c 1
 814 789 821 799 829 808 c 0
 907 898 1000 943 1109 943 c 0
 1191 943 1258 919 1311 871 c 0
 1363 824 1390 774 1390 723 c 0
 1390 698 1382 677 1367 661 c 0
 1353 646 1332 638 1305 638 c 0
 1270 638 1243 651 1224 676 c 0
 1214 690 1207 717 1204 756 c 0
 1201 795 1188 825 1167 846 c 0
 1146 866 1117 876 1079 876 c 0
 1019 876 970 851 933 802 c 0
 884 737 859 650 859 543 c 0
 859 535 860 528 860 520 c 1
 1159 520 l 1
 1159 455 l 1
 865 455 l 1
 875 381 897 314 933 253 c 0
 981 170 1047 128 1130 128 c 0
 1189 128 1243 150 1290 195 c 0
 1323 226 1355 281 1387 362 c 1
 1413 348 l 1
 1391 227 1347 134 1282 69 c 0
 1216 4 1144 -28 1065 -28 c 0
 970 -28 888 16 818 103 c 0
 811 111 805 120 799 129 c 1
 758 78 712 39 660 12 c 0
 607 -14 549 -28 484 -28 c 0
 367 -28 268 15 187 100 c 0
 107 186 67 300 67 443 c 0
 67 596 108 717 190 808 c 0
 273 898 373 943 490 943 c 1
 490 943 l 1
453 888 m 0
 429 888 400 879 368 862 c 0
 334 844 309 814 291 771 c 0
 266 716 254 638 254 539 c 0
 254 367 288 232 356 133 c 0
 397 73 448 43 509 43 c 0
 568 43 617 68 656 117 c 0
 696 166 715 253 715 378 c 0
 715 533 692 657 648 750 c 0
 602 842 538 888 453 888 c 0
1007 1390 m 1
 712 1045 l 1
 678 1045 l 1
 783 1390 l 1
 1007 1390 l 1
EndSplineSet
Validated: 1
EndChar

StartChar: uniE047
Encoding: 57415 57415 71
Width: 879
VWidth: 0
Flags: HW
LayerCount: 2
Back
Fore
SplineSet
488 1390 m 1
 712 1390 l 1
 417 1045 l 1
 383 1045 l 1
 488 1390 l 1
507 943 m 0
 597 943 671 919 729 872 c 0
 787 824 816 774 816 723 c 0
 816 698 808 677 792 662 c 0
 775 646 752 638 723 638 c 0
 684 638 654 651 634 676 c 0
 623 690 615 717 612 756 c 0
 608 795 594 825 571 846 c 0
 548 866 515 876 474 876 c 0
 407 876 354 851 313 802 c 0
 259 737 232 650 232 543 c 0
 232 535 232 528 232 520 c 1
 562 520 l 1
 562 455 l 1
 238 455 l 1
 249 381 274 314 312 254 c 0
 366 170 439 128 530 128 c 0
 595 128 654 150 706 195 c 0
 743 226 778 281 813 362 c 1
 842 348 l 1
 817 227 769 134 697 70 c 0
 625 4 545 -28 458 -28 c 0
 354 -28 263 16 186 103 c 0
 109 190 70 308 70 457 c 0
 70 601 113 718 198 808 c 0
 284 898 387 943 507 943 c 0
EndSplineSet
Validated: 1
EndChar

StartChar: uniE048
Encoding: 57416 57416 72
Width: 569
VWidth: 0
Flags: HW
LayerCount: 2
Back
Fore
SplineSet
515 0 m 1
 54 0 l 1
 54 37 l 1
 99 39 126 41 134 42 c 0
 163 48 183 63 195 86 c 0
 206 107 211 150 211 215 c 2
 211 701 l 2
 211 750 210 780 208 793 c 0
 202 832 187 856 162 866 c 0
 145 873 109 877 54 878 c 1
 54 916 l 1
 515 916 l 1
 515 878 l 1
 444 878 402 860 388 825 c 0
 381 806 377 765 377 701 c 2
 377 215 l 2
 377 163 378 133 379 124 c 0
 384 89 400 65 425 52 c 0
 446 42 476 37 515 37 c 1
 515 0 l 1
530 1390 m 1
 235 1045 l 1
 201 1045 l 1
 306 1390 l 1
 530 1390 l 1
EndSplineSet
Validated: 1
EndChar

StartChar: uniE049
Encoding: 57417 57417 73
Width: 1100
VWidth: 0
Flags: HW
LayerCount: 2
Back
Fore
SplineSet
1055 879 m 1
 1021 879 l 2
 985 879 957 864 938 834 c 0
 928 819 923 786 923 737 c 2
 923 378 l 2
 923 244 897 146 846 83 c 0
 791 14 699 -20 571 -20 c 0
 424 -20 320 17 258 92 c 0
 205 157 178 259 178 397 c 2
 178 742 l 2
 178 789 173 822 163 840 c 0
 149 866 121 879 79 879 c 2
 45 879 l 1
 45 916 l 1
 475 916 l 1
 475 879 l 1
 439 879 l 2
 401 879 374 867 358 844 c 0
 347 829 342 795 342 742 c 2
 342 368 l 2
 342 267 357 192 386 143 c 0
 423 81 488 50 579 50 c 0
 690 50 765 83 806 149 c 0
 836 198 851 281 851 396 c 2
 851 742 l 2
 851 799 845 835 832 850 c 0
 815 869 788 879 753 879 c 2
 719 879 l 1
 719 916 l 1
 1055 916 l 1
 1055 879 l 1
832 1390 m 1
 537 1045 l 1
 503 1045 l 1
 608 1390 l 1
 832 1390 l 1
EndSplineSet
Validated: 1
EndChar

StartChar: uniE04A
Encoding: 57418 57418 74
Width: 569
VWidth: 0
Flags: HW
LayerCount: 2
Back
Fore
SplineSet
515 0 m 1
 54 0 l 1
 54 37 l 1
 99 39 126 41 134 42 c 0
 163 48 183 63 195 86 c 0
 206 107 211 150 211 215 c 2
 211 701 l 2
 211 750 210 780 208 793 c 0
 202 832 187 856 162 866 c 0
 145 873 109 877 54 878 c 1
 54 916 l 1
 515 916 l 1
 515 878 l 1
 444 878 402 860 388 825 c 0
 381 806 377 765 377 701 c 2
 377 215 l 2
 377 163 378 133 379 124 c 0
 384 89 400 65 425 52 c 0
 446 42 476 37 515 37 c 1
 515 0 l 1
461 1337 m 0
 491 1337 516 1326 537 1305 c 0
 558 1284 569 1258 569 1228 c 0
 569 1198 558 1172 537 1152 c 0
 516 1130 491 1120 461 1120 c 0
 431 1120 405 1130 384 1152 c 0
 362 1172 352 1198 352 1228 c 0
 352 1258 362 1284 384 1305 c 0
 405 1326 431 1337 461 1337 c 0
108 1337 m 0
 138 1337 164 1326 185 1305 c 0
 206 1284 217 1258 217 1228 c 0
 217 1198 206 1172 185 1152 c 0
 163 1130 138 1120 109 1120 c 0
 79 1120 53 1130 32 1152 c 0
 10 1172 -0 1198 -0 1228 c 0
 -0 1258 10 1284 31 1305 c 0
 52 1326 78 1337 108 1337 c 0
EndSplineSet
Validated: 1
EndChar

StartChar: uniE04B
Encoding: 57419 57419 75
Width: 1100
VWidth: 0
Flags: HW
LayerCount: 2
Back
Fore
SplineSet
1055 879 m 1
 1021 879 l 2
 985 879 957 864 938 834 c 0
 928 819 923 786 923 737 c 2
 923 378 l 2
 923 244 897 146 846 83 c 0
 791 14 699 -20 571 -20 c 0
 424 -20 320 17 258 92 c 0
 205 157 178 259 178 397 c 2
 178 742 l 2
 178 789 173 822 163 840 c 0
 149 866 121 879 79 879 c 2
 45 879 l 1
 45 916 l 1
 475 916 l 1
 475 879 l 1
 439 879 l 2
 401 879 374 867 358 844 c 0
 347 829 342 795 342 742 c 2
 342 368 l 2
 342 267 357 192 386 143 c 0
 423 81 488 50 579 50 c 0
 690 50 765 83 806 149 c 0
 836 198 851 281 851 396 c 2
 851 742 l 2
 851 799 845 835 832 850 c 0
 815 869 788 879 753 879 c 2
 719 879 l 1
 719 916 l 1
 1055 916 l 1
 1055 879 l 1
745 1337 m 0
 775 1337 801 1326 822 1305 c 0
 843 1284 853 1258 853 1228 c 0
 853 1198 843 1172 822 1152 c 0
 801 1130 775 1120 745 1120 c 0
 715 1120 690 1130 668 1152 c 0
 647 1172 636 1198 636 1228 c 0
 636 1258 647 1284 668 1305 c 0
 690 1326 715 1337 745 1337 c 0
392 1337 m 0
 423 1337 449 1326 470 1305 c 0
 491 1284 501 1258 501 1228 c 0
 501 1198 491 1172 469 1152 c 0
 448 1130 423 1120 393 1120 c 0
 363 1120 338 1130 316 1152 c 0
 295 1172 284 1198 284 1228 c 0
 284 1258 295 1284 316 1305 c 0
 337 1326 362 1337 392 1337 c 0
EndSplineSet
Validated: 1
EndChar

StartChar: O
Encoding: 79 79 76
Width: 1479
VWidth: 0
Flags: HW
LayerCount: 2
Back
Fore
SplineSet
749 1387 m 0
 925 1387 1077.5 1320.16666667 1206.5 1186.5 c 0
 1335.5 1052.83333333 1400 886 1400 686 c 0
 1400 480 1335 309 1205 173 c 0
 1075 37 917.666666667 -31 733 -31 c 0
 546.333333333 -31 389.5 35.3333333333 262.5 168 c 0
 135.5 300.666666667 72 472.333333333 72 683 c 0
 72 898.333333333 145.333333333 1074 292 1210 c 0
 419.333333333 1328 571.666666667 1387 749 1387 c 0
730 1314 m 0
 608.666666667 1314 511.333333333 1269 438 1179 c 0
 346.666666667 1067 301 903 301 687 c 0
 301 465.666666667 348.333333333 295.333333333 443 176 c 0
 515.666666667 85.3333333333 611.666666667 40 731 40 c 0
 858.333333333 40 963.5 89.6666666667 1046.5 189 c 0
 1129.5 288.333333333 1171 445 1171 659 c 0
 1171 891 1125.33333333 1064 1034 1178 c 0
 960.666666667 1268.66666667 859.333333333 1314 730 1314 c 0
EndSplineSet
EndChar

StartChar: zero
Encoding: 48 48 77
Width: 1024
VWidth: 0
Flags: HW
LayerCount: 2
Back
Fore
SplineSet
74 670 m 0
 74 824.666666667 97.3333333333 957.833333333 144 1069.5 c 0
 190.666666667 1181.16666667 252.666666667 1264.33333333 330 1319 c 0
 390 1362.33333333 452 1384 516 1384 c 0
 620 1384 713.333333333 1331 796 1225 c 0
 899.333333333 1093.66666667 951 915.666666667 951 691 c 0
 951 533.666666667 928.333333333 400 883 290 c 0
 837.666666667 180 779.833333333 100.166666667 709.5 50.5 c 0
 639.166666667 0.833333333333 571.333333333 -24 506 -24 c 0
 376.666666667 -24 269 52.3333333333 183 205 c 0
 110.333333333 333.666666667 74 488.666666667 74 670 c 0
270 645 m 0
 270 458.333333333 293 306 339 188 c 0
 377 88.6666666667 433.666666667 39 509 39 c 0
 545 39 582.333333333 55.1666666667 621 87.5 c 0
 659.666666667 119.833333333 689 174 709 250 c 0
 739.666666667 364.666666667 755 526.333333333 755 735 c 0
 755 889.666666667 739 1018.66666667 707 1122 c 0
 683 1198.66666667 652 1253 614 1285 c 0
 586.666666667 1307 553.666666667 1318 515 1318 c 0
 469.666666667 1318 429.333333333 1297.66666667 394 1257 c 0
 346 1201.66666667 313.333333333 1114.66666667 296 996 c 0
 278.666666667 877.333333333 270 760.333333333 270 645 c 0
EndSplineSet
EndChar

StartChar: o
Encoding: 111 111 78
Width: 1024
VWidth: 0
Flags: HW
LayerCount: 2
Back
Fore
SplineSet
512 943 m 0
 650.666666667 943 762 890.333333333 846 785 c 0
 917.333333333 695 953 591.666666667 953 475 c 0
 953 393 933.333333333 310 894 226 c 0
 854.666666667 142 800.5 78.6666666667 731.5 36 c 0
 662.5 -6.66666666667 585.666666667 -28 501 -28 c 0
 363 -28 253.333333333 27 172 137 c 0
 103.333333333 229.666666667 69 333.666666667 69 449 c 0
 69 533 89.8333333333 616.5 131.5 699.5 c 0
 173.166666667 782.5 228 843.833333333 296 883.5 c 0
 364 923.166666667 436 943 512 943 c 0
481 878 m 0
 445.666666667 878 410.166666667 867.5 374.5 846.5 c 0
 338.833333333 825.5 310 788.666666667 288 736 c 0
 266 683.333333333 255 615.666666667 255 533 c 0
 255 399.666666667 281.5 284.666666667 334.5 188 c 0
 387.5 91.3333333333 457.333333333 43 544 43 c 0
 608.666666667 43 662 69.6666666667 704 123 c 0
 746 176.333333333 767 268 767 398 c 0
 767 560.666666667 732 688.666666667 662 782 c 0
 614.666666667 846 554.333333333 878 481 878 c 0
EndSplineSet
EndChar

StartChar: exclam
Encoding: 33 33 80
Width: 682
VWidth: 0
Flags: HW
LayerCount: 2
Back
Fore
SplineSet
360 359 m 1
 322 359 l 1
 234 1169 l 2
 230 1204.33333333 228 1230.66666667 228 1248 c 0
 228 1290 239.166666667 1323.66666667 261.5 1349 c 0
 283.833333333 1374.33333333 310.666666667 1387 342 1387 c 0
 373.333333333 1387 399.833333333 1374.33333333 421.5 1349 c 0
 443.166666667 1323.66666667 454 1286 454 1236 c 0
 454 1220 452.666666667 1197.66666667 450 1169 c 2
 360 359 l 1
340 193 m 0
 370.666666667 193 396.833333333 182.166666667 418.5 160.5 c 0
 440.166666667 138.833333333 451 113 451 83 c 0
 451 52.3333333333 440.166666667 26.1666666667 418.5 4.5 c 0
 396.833333333 -17.1666666667 370.666666667 -28 340 -28 c 0
 309.333333333 -28 283.166666667 -17.1666666667 261.5 4.5 c 0
 239.833333333 26.1666666667 229 52.3333333333 229 83 c 0
 229 113 239.833333333 138.833333333 261.5 160.5 c 0
 283.166666667 182.166666667 309.333333333 193 340 193 c 0
EndSplineSet
EndChar

StartChar: quotedbl
Encoding: 34 34 81
Width: 836
VWidth: 0
Flags: HW
LayerCount: 2
Back
Fore
SplineSet
576 803 m 1
 522 1095 l 1
 500 1216 l 2
 498.666666667 1232.66666667 498 1249.33333333 498 1266 c 0
 498 1308 507.333333333 1338.66666667 526 1358 c 0
 544.666666667 1377.33333333 569.333333333 1387 600 1387 c 0
 628.666666667 1387 652.5 1377.33333333 671.5 1358 c 0
 690.5 1338.66666667 700 1312.66666667 700 1280 c 0
 700 1223.33333333 693.666666667 1162 681 1096 c 2
 624 803 l 1
 576 803 l 1
210 803 m 1
 155 1099 l 2
 140.333333333 1180.33333333 133 1235.66666667 133 1265 c 0
 133 1307.66666667 141.833333333 1338.66666667 159.5 1358 c 0
 177.166666667 1377.33333333 201 1387 231 1387 c 0
 260.333333333 1387 284.666666667 1377.16666667 304 1357.5 c 0
 323.333333333 1337.83333333 333 1311.66666667 333 1279 c 0
 333 1253 324.333333333 1192.66666667 307 1098 c 2
 253 803 l 1
 210 803 l 1
EndSplineSet
EndChar

StartChar: quotesingle
Encoding: 39 39 82
Width: 369
VWidth: 0
Flags: HW
LayerCount: 2
Back
Fore
SplineSet
158 803 m 1
 104 1099 l 2
 88.6666666667 1181 81 1236.33333333 81 1265 c 0
 81 1307.66666667 89.6666666667 1338.66666667 107 1358 c 0
 124.333333333 1377.33333333 148 1387 178 1387 c 0
 208 1387 232.833333333 1377.16666667 252.5 1357.5 c 0
 272.166666667 1337.83333333 282 1312 282 1280 c 0
 282 1255.33333333 273.333333333 1194.66666667 256 1098 c 2
 202 803 l 1
 158 803 l 1
EndSplineSet
EndChar

StartChar: numbersign
Encoding: 35 35 83
Width: 1024
VWidth: 0
Flags: HW
LayerCount: 2
Back
Fore
SplineSet
115 -28 m 1
 208 427 l 1
 37 427 l 1
 37 509 l 1
 224 509 l 1
 293 852 l 1
 37 852 l 1
 37 932 l 1
 312 932 l 1
 403 1387 l 1
 486 1387 l 1
 395 932 l 1
 732 932 l 1
 829 1387 l 1
 912 1387 l 1
 817 932 l 1
 987 932 l 1
 987 852 l 1
 802 852 l 1
 732 509 l 1
 987 509 l 1
 987 427 l 1
 715 427 l 1
 622 -28 l 1
 541 -28 l 1
 632 427 l 1
 293 427 l 1
 198 -28 l 1
 115 -28 l 1
308 509 m 1
 647 509 l 1
 719 852 l 1
 378 852 l 1
 308 509 l 1
EndSplineSet
EndChar

StartChar: dollar
Encoding: 36 36 84
Width: 1024
VWidth: 0
Flags: HW
LayerCount: 2
Back
Fore
SplineSet
108 334 m 1
 152 334 l 1
 159.333333333 242.666666667 188 172.666666667 238 124 c 0
 288 75.3333333333 362.666666667 46.3333333333 462 37 c 1
 462 621 l 1
 312 713.666666667 212 795.666666667 162 867 c 0
 126.666666667 917.666666667 109 979.333333333 109 1052 c 0
 109 1134 139.5 1205.66666667 200.5 1267 c 0
 261.5 1328.33333333 348.666666667 1365.33333333 462 1378 c 1
 462 1470 l 1
 526 1470 l 1
 526 1378 l 1
 580.666666667 1374.66666667 626.666666667 1368.33333333 664 1359 c 0
 683.333333333 1354.33333333 747.333333333 1331.33333333 856 1290 c 1
 856 991 l 1
 817 991 l 1
 808.333333333 1097 780.833333333 1174.5 734.5 1223.5 c 0
 688.166666667 1272.5 618.666666667 1301.66666667 526 1311 c 1
 526 803 l 1
 694 685.666666667 801.833333333 599.166666667 849.5 543.5 c 0
 897.166666667 487.833333333 921 418.666666667 921 336 c 0
 921 244 886.166666667 163 816.5 93 c 0
 746.833333333 23 650 -17.3333333333 526 -28 c 1
 526 -156 l 1
 462 -156 l 1
 462 -28 l 1
 399.333333333 -25.3333333333 341 -18.1666666667 287 -6.5 c 0
 233 5.16666666667 173.333333333 24.3333333333 108 51 c 1
 108 334 l 1
462 845 m 1
 462 1310 l 1
 395.333333333 1302 345.833333333 1280.83333333 313.5 1246.5 c 0
 281.166666667 1212.16666667 265 1169 265 1117 c 0
 265 1068.33333333 279.666666667 1022.83333333 309 980.5 c 0
 338.333333333 938.166666667 389.333333333 893 462 845 c 1
526 37 m 1
 576 45.6666666667 614.333333333 58 641 74 c 0
 678.333333333 97.3333333333 707.833333333 127.833333333 729.5 165.5 c 0
 751.166666667 203.166666667 762 243.333333333 762 286 c 0
 762 330 748.833333333 371.666666667 722.5 411 c 0
 696.166666667 450.333333333 630.666666667 506 526 578 c 1
 526 37 l 1
EndSplineSet
EndChar

StartChar: percent
Encoding: 37 37 85
Width: 1706
VWidth: 0
Flags: HW
LayerCount: 2
Back
Fore
SplineSet
1392 1387 m 1
 404 -56 l 1
 315 -56 l 1
 1303 1387 l 1
 1392 1387 l 1
364 1387 m 0
 454 1387 523.833333333 1349.66666667 573.5 1275 c 0
 623.166666667 1200.33333333 648 1114.66666667 648 1018 c 0
 648 902 620 812.333333333 564 749 c 0
 508 685.666666667 440.666666667 654 362 654 c 0
 309.333333333 654 261 668.5 217 697.5 c 0
 173 726.5 137.833333333 769.666666667 111.5 827 c 0
 85.1666666667 884.333333333 72 948 72 1018 c 0
 72 1088 85.3333333333 1152.5 112 1211.5 c 0
 138.666666667 1270.5 175.166666667 1314.5 221.5 1343.5 c 0
 267.833333333 1372.5 315.333333333 1387 364 1387 c 0
361 1331 m 0
 327 1331 296.833333333 1311 270.5 1271 c 0
 244.166666667 1231 231 1147 231 1019 c 0
 231 926.333333333 238.333333333 855.666666667 253 807 c 0
 264.333333333 770.333333333 282 742 306 722 c 0
 320 710 337.333333333 704 358 704 c 0
 390 704 417.333333333 721.333333333 440 756 c 0
 473.333333333 807.333333333 490 893 490 1013 c 0
 490 1139.66666667 473.666666667 1228.66666667 441 1280 c 0
 419.666666667 1314 393 1331 361 1331 c 0
1346 673 m 0
 1393.33333333 673 1440.5 658 1487.5 628 c 0
 1534.5 598 1570.83333333 554.333333333 1596.5 497 c 0
 1622.16666667 439.666666667 1635 376.666666667 1635 308 c 0
 1635 190 1606.66666667 99.8333333333 1550 37.5 c 0
 1493.33333333 -24.8333333333 1426.33333333 -56 1349 -56 c 0
 1300.33333333 -56 1253.16666667 -41 1207.5 -11 c 0
 1161.83333333 19 1125.83333333 61.8333333333 1099.5 117.5 c 0
 1073.16666667 173.166666667 1060 236.666666667 1060 308 c 0
 1060 378 1073.16666667 442 1099.5 500 c 0
 1125.83333333 558 1161.83333333 601.333333333 1207.5 630 c 0
 1253.16666667 658.666666667 1299.33333333 673 1346 673 c 0
1347 620 m 0
 1315 620 1287.33333333 602 1264 566 c 0
 1234 519.333333333 1219 431 1219 301 c 0
 1219 181.666666667 1234.33333333 98.3333333333 1265 51 c 0
 1287.66666667 17 1315 0 1347 0 c 0
 1377.66666667 0 1405 18.3333333333 1429 55 c 0
 1461 103.666666667 1477 187.333333333 1477 306 c 0
 1477 431.333333333 1461 519 1429 569 c 0
 1407 603 1379.66666667 620 1347 620 c 0
EndSplineSet
EndChar

StartChar: ampersand
Encoding: 38 38 86
Width: 1593
VWidth: 0
Flags: HW
LayerCount: 2
Back
Fore
SplineSet
1045 873 m 1
 1465 873 l 1
 1465 836 l 1
 1407 831.333333333 1364.16666667 818.5 1336.5 797.5 c 0
 1308.83333333 776.5 1265.66666667 713 1207 607 c 0
 1148.33333333 501 1082.33333333 402 1009 310 c 1
 1068.33333333 240.666666667 1121.33333333 192.166666667 1168 164.5 c 0
 1214.66666667 136.833333333 1261.66666667 123 1309 123 c 0
 1355 123 1394 135.5 1426 160.5 c 0
 1458 185.5 1480.66666667 222.333333333 1494 271 c 1
 1531 244 l 1
 1506.33333333 150 1466.66666667 80.6666666667 1412 36 c 0
 1357.33333333 -8.66666666667 1293.66666667 -31 1221 -31 c 0
 1166.33333333 -31 1110.83333333 -16.1666666667 1054.5 13.5 c 0
 998.166666667 43.1666666667 936.666666667 93.3333333333 870 164 c 1
 787.333333333 90.6666666667 712.833333333 39.8333333333 646.5 11.5 c 0
 580.166666667 -16.8333333333 509.333333333 -31 434 -31 c 0
 324 -31 236.666666667 -1.66666666667 172 57 c 0
 107.333333333 115.666666667 75 185.666666667 75 267 c 0
 75 347.666666667 104 428.166666667 162 508.5 c 0
 220 588.833333333 329 672 489 758 c 1
 457.666666667 827.333333333 436.333333333 884.166666667 425 928.5 c 0
 413.666666667 972.833333333 408 1015.33333333 408 1056 c 0
 408 1170 450 1257 534 1317 c 0
 599.333333333 1363.66666667 673.666666667 1387 757 1387 c 0
 836.333333333 1387 901 1363.5 951 1316.5 c 0
 1001 1269.5 1026 1211.66666667 1026 1143 c 0
 1026 1072.33333333 1001.83333333 1010.33333333 953.5 957 c 0
 905.166666667 903.666666667 819.666666667 845.333333333 697 782 c 1
 781.666666667 631.333333333 870 493.333333333 962 368 c 1
 1079.33333333 508 1138 626 1138 722 c 0
 1138 752.666666667 1128 780 1108 804 c 0
 1093.33333333 822 1072.33333333 832.666666667 1045 836 c 1
 1045 873 l 1
663 847 m 1
 745.666666667 886.333333333 807.5 931 848.5 981 c 0
 889.5 1031 910 1086.66666667 910 1148 c 0
 910 1196 895.166666667 1235.66666667 865.5 1267 c 0
 835.833333333 1298.33333333 799 1314 755 1314 c 0
 697 1314 653.166666667 1293.83333333 623.5 1253.5 c 0
 593.833333333 1213.16666667 579 1173.66666667 579 1135 c 0
 579 1102.33333333 584.666666667 1065.83333333 596 1025.5 c 0
 607.333333333 985.166666667 629.666666667 925.666666667 663 847 c 1
818 222 m 1
 730 342 669 429.666666667 635 485 c 0
 601 540.333333333 563.666666667 609 523 691 c 1
 443 645 382.833333333 594.333333333 342.5 539 c 0
 302.166666667 483.666666667 282 423.666666667 282 359 c 0
 282 287.666666667 305 225 351 171 c 0
 397 117 459 90 537 90 c 0
 579 90 619.5 98.3333333333 658.5 115 c 0
 697.5 131.666666667 750.666666667 167.333333333 818 222 c 1
EndSplineSet
EndChar

StartChar: parenleft
Encoding: 40 40 87
Width: 682
VWidth: 0
Flags: HW
LayerCount: 2
Back
Fore
SplineSet
636 -401 m 1
 636 -438 l 1
 535.333333333 -387.333333333 451.333333333 -328 384 -260 c 0
 288 -163.333333333 214 -49.3333333333 162 82 c 0
 110 213.333333333 84 349.666666667 84 491 c 0
 84 697.666666667 135 886.166666667 237 1056.5 c 0
 339 1226.83333333 472 1348.66666667 636 1422 c 1
 636 1380 l 1
 554 1334.66666667 486.666666667 1272.66666667 434 1194 c 0
 381.333333333 1115.33333333 342 1015.66666667 316 895 c 0
 290 774.333333333 277 648.333333333 277 517 c 0
 277 374.333333333 288 244.666666667 310 128 c 0
 327.333333333 36 348.333333333 -37.8333333333 373 -93.5 c 0
 397.666666667 -149.166666667 430.833333333 -202.666666667 472.5 -254 c 0
 514.166666667 -305.333333333 568.666666667 -354.333333333 636 -401 c 1
EndSplineSet
EndChar

StartChar: parenright
Encoding: 41 41 88
Width: 682
VWidth: 0
Flags: HW
LayerCount: 2
Back
Fore
SplineSet
46 1380 m 1
 46 1422 l 1
 147.333333333 1372 231.666666667 1313 299 1245 c 0
 394.333333333 1147.66666667 468 1033.5 520 902.5 c 0
 572 771.5 598 635 598 493 c 0
 598 286.333333333 547.166666667 97.8333333333 445.5 -72.5 c 0
 343.833333333 -242.833333333 210.666666667 -364.666666667 46 -438 c 1
 46 -401 l 1
 128 -355 195.5 -292.833333333 248.5 -214.5 c 0
 301.5 -136.166666667 340.833333333 -36.5 366.5 84.5 c 0
 392.166666667 205.5 405 331.666666667 405 463 c 0
 405 605 394 734.666666667 372 852 c 0
 355.333333333 944 334.5 1017.66666667 309.5 1073 c 0
 284.5 1128.33333333 251.333333333 1181.66666667 210 1233 c 0
 168.666666667 1284.33333333 114 1333.33333333 46 1380 c 1
EndSplineSet
EndChar

StartChar: asterisk
Encoding: 42 42 89
Width: 1024
VWidth: 0
Flags: HW
LayerCount: 2
Back
Fore
SplineSet
494 1044 m 1
 491.333333333 1090 482 1135.66666667 466 1181 c 0
 443.333333333 1246.33333333 432 1291.33333333 432 1316 c 0
 432 1350.66666667 440.166666667 1377 456.5 1395 c 0
 472.833333333 1413 493 1422 517 1422 c 0
 537.666666667 1422 555.666666667 1413 571 1395 c 0
 586.333333333 1377 594 1351.33333333 594 1318 c 0
 594 1288 585.166666667 1246.16666667 567.5 1192.5 c 0
 549.833333333 1138.83333333 539 1089.33333333 535 1044 c 1
 571.666666667 1067.33333333 604.666666667 1095.66666667 634 1129 c 0
 679.333333333 1181.66666667 713 1214.33333333 735 1227 c 0
 757 1239.66666667 779.333333333 1246 802 1246 c 0
 824 1246 842.5 1238.5 857.5 1223.5 c 0
 872.5 1208.5 880 1190.66666667 880 1170 c 0
 880 1145.33333333 869 1123.33333333 847 1104 c 0
 825 1084.66666667 770 1065.33333333 682 1046 c 0
 630.666666667 1034.66666667 588 1021.66666667 554 1007 c 1
 588.666666667 989 631 975.333333333 681 966 c 0
 761.666666667 951.333333333 814.5 933 839.5 911 c 0
 864.5 889 877 865 877 839 c 0
 877 819 869.5 801.666666667 854.5 787 c 0
 839.5 772.333333333 822 765 802 765 c 0
 782 765 759.833333333 772 735.5 786 c 0
 711.166666667 800 678.333333333 831.333333333 637 880 c 0
 609.666666667 912.666666667 575.666666667 943.333333333 535 972 c 1
 536.333333333 934 544 892.666666667 558 848 c 0
 582 769.333333333 594 715.666666667 594 687 c 0
 594 660.333333333 586 637.833333333 570 619.5 c 0
 554 601.166666667 537 592 519 592 c 0
 494.333333333 592 472 601.666666667 452 621 c 0
 438 635 431 657.333333333 431 688 c 0
 431 720 438.666666667 758.5 454 803.5 c 0
 469.333333333 848.5 479 879.5 483 896.5 c 0
 487 913.5 490.666666667 938.666666667 494 972 c 1
 454.666666667 946 420.333333333 917 391 885 c 0
 342.333333333 830.333333333 305.666666667 795.666666667 281 781 c 0
 263.666666667 770.333333333 245.666666667 765 227 765 c 0
 204.333333333 765 185 772.666666667 169 788 c 0
 153 803.333333333 145 820.333333333 145 839 c 0
 145 855.666666667 151.833333333 873.166666667 165.5 891.5 c 0
 179.166666667 909.833333333 199.666666667 925 227 937 c 0
 245 945 286 955.666666667 350 969 c 0
 391.333333333 977.666666667 431.666666667 990.333333333 471 1007 c 1
 435 1025 392 1039 342 1049 c 0
 260 1066.33333333 209.333333333 1082 190 1096 c 0
 160 1118 145 1144.66666667 145 1176 c 0
 145 1194 152.5 1210.5 167.5 1225.5 c 0
 182.5 1240.5 200 1248 220 1248 c 0
 242 1248 265.333333333 1241 290 1227 c 0
 314.666666667 1213 345.333333333 1184.83333333 382 1142.5 c 0
 418.666666667 1100.16666667 456 1067.33333333 494 1044 c 1
EndSplineSet
EndChar

StartChar: plus
Encoding: 43 43 90
Width: 1155
VWidth: 0
Flags: HW
LayerCount: 2
Back
Fore
SplineSet
535 141 m 1
 535 640 l 1
 37 640 l 1
 37 722 l 1
 535 722 l 1
 535 1219 l 1
 615 1219 l 1
 615 722 l 1
 1115 722 l 1
 1115 640 l 1
 615 640 l 1
 615 141 l 1
 535 141 l 1
EndSplineSet
EndChar

StartChar: comma
Encoding: 44 44 91
Width: 512
VWidth: 0
Flags: HW
LayerCount: 2
Back
Fore
SplineSet
110 -341 m 1
 110 -297 l 1
 178.666666667 -274.333333333 231.833333333 -239.166666667 269.5 -191.5 c 0
 307.166666667 -143.833333333 326 -93.3333333333 326 -40 c 0
 326 -27.3333333333 323 -16.6666666667 317 -8 c 0
 312.333333333 -2 307.666666667 1 303 1 c 0
 295.666666667 1 279.666666667 -5.66666666667 255 -19 c 0
 243 -25 230.333333333 -28 217 -28 c 0
 184.333333333 -28 158.333333333 -18.3333333333 139 1 c 0
 119.666666667 20.3333333333 110 47 110 81 c 0
 110 113.666666667 122.5 141.666666667 147.5 165 c 0
 172.5 188.333333333 203 200 239 200 c 0
 283 200 322.166666667 180.833333333 356.5 142.5 c 0
 390.833333333 104.166666667 408 53.3333333333 408 -10 c 0
 408 -78.6666666667 384.166666667 -142.5 336.5 -201.5 c 0
 288.833333333 -260.5 213.333333333 -307 110 -341 c 1
EndSplineSet
EndChar

StartChar: hyphen
Encoding: 45 45 92
Width: 682
VWidth: 0
Flags: HW
LayerCount: 2
Back
Fore
SplineSet
83 535 m 1
 600 535 l 1
 600 384 l 1
 83 384 l 1
 83 535 l 1
EndSplineSet
EndChar

StartChar: period
Encoding: 46 46 93
Width: 512
VWidth: 0
Flags: HW
LayerCount: 2
Back
Fore
SplineSet
256 194 m 0
 287.333333333 194 313.666666667 183.166666667 335 161.5 c 0
 356.333333333 139.833333333 367 113.666666667 367 83 c 0
 367 52.3333333333 356.166666667 26.1666666667 334.5 4.5 c 0
 312.833333333 -17.1666666667 286.666666667 -28 256 -28 c 0
 225.333333333 -28 199.166666667 -17.1666666667 177.5 4.5 c 0
 155.833333333 26.1666666667 145 52.3333333333 145 83 c 0
 145 114.333333333 155.833333333 140.666666667 177.5 162 c 0
 199.166666667 183.333333333 225.333333333 194 256 194 c 0
EndSplineSet
EndChar

StartChar: slash
Encoding: 47 47 94
Width: 569
VWidth: 0
Flags: HW
LayerCount: 2
Back
Fore
SplineSet
574 1422 m 1
 83 -28 l 1
 3 -28 l 1
 494 1422 l 1
 574 1422 l 1
EndSplineSet
EndChar

StartChar: colon
Encoding: 58 58 95
Width: 569
VWidth: 0
Flags: HW
LayerCount: 2
Back
Fore
SplineSet
289 944 m 0
 319.666666667 944 345.833333333 933.166666667 367.5 911.5 c 0
 389.166666667 889.833333333 400 863.666666667 400 833 c 0
 400 802.333333333 389.166666667 776.166666667 367.5 754.5 c 0
 345.833333333 732.833333333 319.666666667 722 289 722 c 0
 258.333333333 722 232.166666667 732.833333333 210.5 754.5 c 0
 188.833333333 776.166666667 178 802.333333333 178 833 c 0
 178 863.666666667 188.833333333 889.833333333 210.5 911.5 c 0
 232.166666667 933.166666667 258.333333333 944 289 944 c 0
287 195 m 0
 318.333333333 195 344.833333333 184 366.5 162 c 0
 388.166666667 140 399 113.666666667 399 83 c 0
 399 52.3333333333 388 26.1666666667 366 4.5 c 0
 344 -17.1666666667 317.666666667 -28 287 -28 c 0
 256.333333333 -28 230.166666667 -17.1666666667 208.5 4.5 c 0
 186.833333333 26.1666666667 176 52.3333333333 176 83 c 0
 176 113.666666667 186.833333333 140 208.5 162 c 0
 230.166666667 184 256.333333333 195 287 195 c 0
EndSplineSet
EndChar

StartChar: semicolon
Encoding: 59 59 96
Width: 569
VWidth: 0
Flags: HW
LayerCount: 2
Back
Fore
SplineSet
282 945 m 0
 312.666666667 945 338.833333333 934.333333333 360.5 913 c 0
 382.166666667 891.666666667 393 865.666666667 393 835 c 0
 393 804.333333333 382.166666667 778.166666667 360.5 756.5 c 0
 338.833333333 734.833333333 312.666666667 724 282 724 c 0
 251.333333333 724 225.166666667 734.833333333 203.5 756.5 c 0
 181.833333333 778.166666667 171 804.333333333 171 835 c 0
 171 865.666666667 181.833333333 891.666666667 203.5 913 c 0
 225.166666667 934.333333333 251.333333333 945 282 945 c 0
142 -341 m 1
 142 -297 l 1
 210.666666667 -274.333333333 263.833333333 -239.166666667 301.5 -191.5 c 0
 339.166666667 -143.833333333 358 -93.3333333333 358 -40 c 0
 358 -27.3333333333 355 -16.6666666667 349 -8 c 0
 344.333333333 -2 339.666666667 1 335 1 c 0
 327.666666667 1 311.666666667 -5.66666666667 287 -19 c 0
 275 -25 262.333333333 -28 249 -28 c 0
 216.333333333 -28 190.333333333 -18.3333333333 171 1 c 0
 151.666666667 20.3333333333 142 47 142 81 c 0
 142 113.666666667 154.5 141.666666667 179.5 165 c 0
 204.5 188.333333333 235 200 271 200 c 0
 315 200 354.166666667 180.833333333 388.5 142.5 c 0
 422.833333333 104.166666667 440 53.3333333333 440 -10 c 0
 440 -78.6666666667 416.166666667 -142.5 368.5 -201.5 c 0
 320.833333333 -260.5 245.333333333 -307 142 -341 c 1
EndSplineSet
EndChar

StartChar: one
Encoding: 49 49 97
Width: 1024
VWidth: 0
Flags: HW
LayerCount: 2
Back
Fore
SplineSet
240 1223 m 1
 570 1384 l 1
 603 1384 l 1
 603 239 l 2
 603 163 606.166666667 115.666666667 612.5 97 c 0
 618.833333333 78.3333333333 632 64 652 54 c 0
 672 44 712.666666667 38.3333333333 774 37 c 1
 774 0 l 1
 264 0 l 1
 264 37 l 1
 328 38.3333333333 369.333333333 43.8333333333 388 53.5 c 0
 406.666666667 63.1666666667 419.666666667 76.1666666667 427 92.5 c 0
 434.333333333 108.833333333 438 157.666666667 438 239 c 2
 438 971 l 2
 438 1069.66666667 434.666666667 1133 428 1161 c 0
 423.333333333 1182.33333333 414.833333333 1198 402.5 1208 c 0
 390.166666667 1218 375.333333333 1223 358 1223 c 0
 333.333333333 1223 299 1212.66666667 255 1192 c 1
 240 1223 l 1
EndSplineSet
EndChar

StartChar: two
Encoding: 50 50 98
Width: 1024
VWidth: 0
Flags: HW
LayerCount: 2
Back
Fore
SplineSet
939 261 m 1
 844 0 l 1
 44 0 l 1
 44 37 l 1
 279.333333333 251.666666667 445 427 541 563 c 0
 637 699 685 823.333333333 685 936 c 0
 685 1022 658.666666667 1092.66666667 606 1148 c 0
 553.333333333 1203.33333333 490.333333333 1231 417 1231 c 0
 350.333333333 1231 290.5 1211.5 237.5 1172.5 c 0
 184.5 1133.5 145.333333333 1076.33333333 120 1001 c 1
 83 1001 l 1
 99.6666666667 1124.33333333 142.5 1219 211.5 1285 c 0
 280.5 1351 366.666666667 1384 470 1384 c 0
 580 1384 671.833333333 1348.66666667 745.5 1278 c 0
 819.166666667 1207.33333333 856 1124 856 1028 c 0
 856 959.333333333 840 890.666666667 808 822 c 0
 758.666666667 714 678.666666667 599.666666667 568 479 c 0
 402 297.666666667 298.333333333 188.333333333 257 151 c 1
 611 151 l 2
 683 151 733.5 153.666666667 762.5 159 c 0
 791.5 164.333333333 817.666666667 175.166666667 841 191.5 c 0
 864.333333333 207.833333333 884.666666667 231 902 261 c 1
 939 261 l 1
EndSplineSet
EndChar

StartChar: three
Encoding: 51 51 99
Width: 1024
VWidth: 0
Flags: HW
LayerCount: 2
Back
Fore
SplineSet
104 1098 m 1
 142.666666667 1189.33333333 191.5 1259.83333333 250.5 1309.5 c 0
 309.5 1359.16666667 383 1384 471 1384 c 0
 579.666666667 1384 663 1348.66666667 721 1278 c 0
 765 1225.33333333 787 1169 787 1109 c 0
 787 1010.33333333 725 908.333333333 601 803 c 1
 684.333333333 770.333333333 747.333333333 723.666666667 790 663 c 0
 832.666666667 602.333333333 854 531 854 449 c 0
 854 331.666666667 816.666666667 230 742 144 c 0
 644.666666667 32 503.666666667 -24 319 -24 c 0
 227.666666667 -24 165.5 -12.6666666667 132.5 10 c 0
 99.5 32.6666666667 83 57 83 83 c 0
 83 102.333333333 90.8333333333 119.333333333 106.5 134 c 0
 122.166666667 148.666666667 141 156 163 156 c 0
 179.666666667 156 196.666666667 153.333333333 214 148 c 0
 225.333333333 144.666666667 251 132.5 291 111.5 c 0
 331 90.5 358.666666667 78 374 74 c 0
 398.666666667 66.6666666667 425 63 453 63 c 0
 521 63 580.166666667 89.3333333333 630.5 142 c 0
 680.833333333 194.666666667 706 257 706 329 c 0
 706 381.666666667 694.333333333 433 671 483 c 0
 653.666666667 520.333333333 634.666666667 548.666666667 614 568 c 0
 585.333333333 594.666666667 546 618.833333333 496 640.5 c 0
 446 662.166666667 395 673 343 673 c 2
 311 673 l 1
 311 703 l 1
 363.666666667 709.666666667 416.5 728.666666667 469.5 760 c 0
 522.5 791.333333333 561 829 585 873 c 0
 609 917 621 965.333333333 621 1018 c 0
 621 1086.66666667 599.5 1142.16666667 556.5 1184.5 c 0
 513.5 1226.83333333 460 1248 396 1248 c 0
 292.666666667 1248 206.333333333 1192.66666667 137 1082 c 1
 104 1098 l 1
EndSplineSet
EndChar

StartChar: four
Encoding: 52 52 100
Width: 1024
VWidth: 0
Flags: HW
LayerCount: 2
Back
Fore
SplineSet
953 500 m 1
 953 358 l 1
 771 358 l 1
 771 0 l 1
 606 0 l 1
 606 358 l 1
 32 358 l 1
 32 486 l 1
 661 1384 l 1
 771 1384 l 1
 771 500 l 1
 953 500 l 1
606 500 m 1
 606 1173 l 1
 130 500 l 1
 606 500 l 1
EndSplineSet
EndChar

StartChar: five
Encoding: 53 53 101
Width: 1024
VWidth: 0
Flags: HW
LayerCount: 2
Back
Fore
SplineSet
889 1356 m 1
 811 1186 l 1
 403 1186 l 1
 314 1004 l 1
 490.666666667 978 630.666666667 912.333333333 734 807 c 0
 822.666666667 716.333333333 867 609.666666667 867 487 c 0
 867 415.666666667 852.5 349.666666667 823.5 289 c 0
 794.5 228.333333333 758 176.666666667 714 134 c 0
 670 91.3333333333 621 57 567 31 c 0
 490.333333333 -5.66666666667 411.666666667 -24 331 -24 c 0
 249.666666667 -24 190.5 -10.1666666667 153.5 17.5 c 0
 116.5 45.1666666667 98 75.6666666667 98 109 c 0
 98 127.666666667 105.666666667 144.166666667 121 158.5 c 0
 136.333333333 172.833333333 155.666666667 180 179 180 c 0
 196.333333333 180 211.5 177.333333333 224.5 172 c 0
 237.5 166.666666667 259.666666667 153 291 131 c 0
 341 96.3333333333 391.666666667 79 443 79 c 0
 521 79 589.5 108.5 648.5 167.5 c 0
 707.5 226.5 737 298.333333333 737 383 c 0
 737 465 710.666666667 541.5 658 612.5 c 0
 605.333333333 683.5 532.666666667 738.333333333 440 777 c 0
 367.333333333 807 268.333333333 824.333333333 143 829 c 1
 403 1356 l 1
 889 1356 l 1
EndSplineSet
EndChar

StartChar: six
Encoding: 54 54 102
Width: 1024
VWidth: 0
Flags: HW
LayerCount: 2
Back
Fore
SplineSet
918 1384 m 1
 918 1347 l 1
 830 1338.33333333 758.166666667 1320.83333333 702.5 1294.5 c 0
 646.833333333 1268.16666667 591.833333333 1228 537.5 1174 c 0
 483.166666667 1120 438.166666667 1059.83333333 402.5 993.5 c 0
 366.833333333 927.166666667 337 848.333333333 313 757 c 1
 409 823 505.333333333 856 602 856 c 0
 694.666666667 856 775 818.666666667 843 744 c 0
 911 669.333333333 945 573.333333333 945 456 c 0
 945 342.666666667 910.666666667 239.333333333 842 146 c 0
 759.333333333 32.6666666667 650 -24 514 -24 c 0
 421.333333333 -24 342.666666667 6.66666666667 278 68 c 0
 151.333333333 187.333333333 88 342 88 532 c 0
 88 653.333333333 112.333333333 768.666666667 161 878 c 0
 209.666666667 987.333333333 279.166666667 1084.33333333 369.5 1169 c 0
 459.833333333 1253.66666667 546.333333333 1310.66666667 629 1340 c 0
 711.666666667 1369.33333333 788.666666667 1384 860 1384 c 2
 918 1384 l 1
296 684 m 1
 284 594 278 521.333333333 278 466 c 0
 278 402 289.833333333 332.5 313.5 257.5 c 0
 337.166666667 182.5 372.333333333 123 419 79 c 0
 453 47.6666666667 494.333333333 32 543 32 c 0
 601 32 652.833333333 59.3333333333 698.5 114 c 0
 744.166666667 168.666666667 767 246.666666667 767 348 c 0
 767 462 744.333333333 560.666666667 699 644 c 0
 653.666666667 727.333333333 589.333333333 769 506 769 c 0
 480.666666667 769 453.5 763.666666667 424.5 753 c 0
 395.5 742.333333333 352.666666667 719.333333333 296 684 c 1
EndSplineSet
EndChar

StartChar: seven
Encoding: 55 55 103
Width: 1024
VWidth: 0
Flags: HW
LayerCount: 2
Back
Fore
SplineSet
206 1356 m 1
 933 1356 l 1
 933 1318 l 1
 481 -28 l 1
 369 -28 l 1
 774 1193 l 1
 401 1193 l 2
 325.666666667 1193 272 1184 240 1166 c 0
 184 1135.33333333 139 1088 105 1024 c 1
 76 1035 l 1
 206 1356 l 1
EndSplineSet
EndChar

StartChar: eight
Encoding: 56 56 104
Width: 1024
VWidth: 0
Flags: HW
LayerCount: 2
Back
Fore
SplineSet
393 683 m 1
 285.666666667 771 216.5 841.666666667 185.5 895 c 0
 154.5 948.333333333 139 1003.66666667 139 1061 c 0
 139 1149 173 1224.83333333 241 1288.5 c 0
 309 1352.16666667 399.333333333 1384 512 1384 c 0
 621.333333333 1384 709.333333333 1354.33333333 776 1295 c 0
 842.666666667 1235.66666667 876 1168 876 1092 c 0
 876 1041.33333333 858 989.666666667 822 937 c 0
 786 884.333333333 711 822.333333333 597 751 c 1
 714.333333333 660.333333333 792 589 830 537 c 0
 880.666666667 469 906 397.333333333 906 322 c 0
 906 226.666666667 869.666666667 145.166666667 797 77.5 c 0
 724.333333333 9.83333333333 629 -24 511 -24 c 0
 382.333333333 -24 282 16.3333333333 210 97 c 0
 152.666666667 161.666666667 124 232.333333333 124 309 c 0
 124 369 144.166666667 428.5 184.5 487.5 c 0
 224.833333333 546.5 294.333333333 611.666666667 393 683 c 1
550 790 m 1
 630 862 680.666666667 918.833333333 702 960.5 c 0
 723.333333333 1002.16666667 734 1049.33333333 734 1102 c 0
 734 1172 714.333333333 1226.83333333 675 1266.5 c 0
 635.666666667 1306.16666667 582 1326 514 1326 c 0
 446 1326 390.666666667 1306.33333333 348 1267 c 0
 305.333333333 1227.66666667 284 1181.66666667 284 1129 c 0
 284 1094.33333333 292.833333333 1059.66666667 310.5 1025 c 0
 328.166666667 990.333333333 353.333333333 957.333333333 386 926 c 1
 550 790 l 1
440 645 m 1
 384.666666667 598.333333333 343.666666667 547.5 317 492.5 c 0
 290.333333333 437.5 277 378 277 314 c 0
 277 228 300.5 159.166666667 347.5 107.5 c 0
 394.5 55.8333333333 454.333333333 30 527 30 c 0
 599 30 656.666666667 50.3333333333 700 91 c 0
 743.333333333 131.666666667 765 181 765 239 c 0
 765 287 752.333333333 330 727 368 c 0
 679.666666667 438.666666667 584 531 440 645 c 1
EndSplineSet
EndChar

StartChar: nine
Encoding: 57 57 105
Width: 1024
VWidth: 0
Flags: HW
LayerCount: 2
Back
Fore
SplineSet
108 -28 m 1
 108 9 l 1
 194.666666667 10.3333333333 275.333333333 30.5 350 69.5 c 0
 424.666666667 108.5 496.833333333 176.666666667 566.5 274 c 0
 636.166666667 371.333333333 684.666666667 478.333333333 712 595 c 1
 607.333333333 527.666666667 512.666666667 494 428 494 c 0
 332.666666667 494 251 530.833333333 183 604.5 c 0
 115 678.166666667 81 776 81 898 c 0
 81 1016.66666667 115 1122.33333333 183 1215 c 0
 265 1327.66666667 372 1384 504 1384 c 0
 615.333333333 1384 710.666666667 1338 790 1246 c 0
 887.333333333 1132 936 991.333333333 936 824 c 0
 936 673.333333333 899 532.833333333 825 402.5 c 0
 751 272.166666667 648 164 516 78 c 0
 408.666666667 7.33333333333 291.666666667 -28 165 -28 c 2
 108 -28 l 1
728 669 m 1
 740 755.666666667 746 825 746 877 c 0
 746 941.666666667 735 1011.5 713 1086.5 c 0
 691 1161.5 659.833333333 1219 619.5 1259 c 0
 579.166666667 1299 533.333333333 1319 482 1319 c 0
 422.666666667 1319 370.666666667 1292.33333333 326 1239 c 0
 281.333333333 1185.66666667 259 1106.33333333 259 1001 c 0
 259 860.333333333 288.666666667 750.333333333 348 671 c 0
 391.333333333 613.666666667 444.666666667 585 508 585 c 0
 538.666666667 585 575 592.333333333 617 607 c 0
 659 621.666666667 696 642.333333333 728 669 c 1
EndSplineSet
EndChar

StartChar: A
Encoding: 65 65 106
Width: 1479
VWidth: 0
Flags: HW
LayerCount: 2
Back
Fore
SplineSet
937 454 m 1
 412 454 l 1
 320 240 l 2
 297.333333333 187.333333333 286 148 286 122 c 0
 286 101.333333333 295.833333333 83.1666666667 315.5 67.5 c 0
 335.166666667 51.8333333333 377.666666667 41.6666666667 443 37 c 1
 443 0 l 1
 16 0 l 1
 16 37 l 1
 72.6666666667 47 109.333333333 60 126 76 c 0
 160 108 197.666666667 173 239 271 c 2
 716 1387 l 1
 751 1387 l 1
 1223 259 l 2
 1261 168.333333333 1295.5 109.5 1326.5 82.5 c 0
 1357.5 55.5 1400.66666667 40.3333333333 1456 37 c 1
 1456 0 l 1
 921 0 l 1
 921 37 l 1
 975 39.6666666667 1011.5 48.6666666667 1030.5 64 c 0
 1049.5 79.3333333333 1059 98 1059 120 c 0
 1059 149.333333333 1045.66666667 195.666666667 1019 259 c 2
 937 454 l 1
909 528 m 1
 679 1076 l 1
 443 528 l 1
 909 528 l 1
EndSplineSet
EndChar

StartChar: B
Encoding: 66 66 107
Width: 1366
VWidth: 0
Flags: HW
LayerCount: 2
Back
Fore
SplineSet
946 692 m 1
 1040 672 1110.33333333 640 1157 596 c 0
 1221.66666667 534.666666667 1254 459.666666667 1254 371 c 0
 1254 303.666666667 1232.66666667 239.166666667 1190 177.5 c 0
 1147.33333333 115.833333333 1088.83333333 70.8333333333 1014.5 42.5 c 0
 940.166666667 14.1666666667 826.666666667 0 674 0 c 2
 34 0 l 1
 34 37 l 1
 85 37 l 2
 141.666666667 37 182.333333333 55 207 91 c 0
 222.333333333 114.333333333 230 164 230 240 c 2
 230 1116 l 2
 230 1200 220.333333333 1253 201 1275 c 0
 175 1304.33333333 136.333333333 1319 85 1319 c 2
 34 1319 l 1
 34 1356 l 1
 620 1356 l 2
 729.333333333 1356 817 1348 883 1332 c 0
 983 1308 1059.33333333 1265.5 1112 1204.5 c 0
 1164.66666667 1143.5 1191 1073.33333333 1191 994 c 0
 1191 926 1170.33333333 865.166666667 1129 811.5 c 0
 1087.66666667 757.833333333 1026.66666667 718 946 692 c 1
422 746 m 1
 446.666666667 741.333333333 474.833333333 737.833333333 506.5 735.5 c 0
 538.166666667 733.166666667 573 732 611 732 c 0
 708.333333333 732 781.5 742.5 830.5 763.5 c 0
 879.5 784.5 917 816.666666667 943 860 c 0
 969 903.333333333 982 950.666666667 982 1002 c 0
 982 1081.33333333 949.666666667 1149 885 1205 c 0
 820.333333333 1261 726 1289 602 1289 c 0
 535.333333333 1289 475.333333333 1281.66666667 422 1267 c 1
 422 746 l 1
422 98 m 1
 499.333333333 80 575.666666667 71 651 71 c 0
 771.666666667 71 863.666666667 98.1666666667 927 152.5 c 0
 990.333333333 206.833333333 1022 274 1022 354 c 0
 1022 406.666666667 1007.66666667 457.333333333 979 506 c 0
 950.333333333 554.666666667 903.666666667 593 839 621 c 0
 774.333333333 649 694.333333333 663 599 663 c 0
 557.666666667 663 522.333333333 662.333333333 493 661 c 0
 463.666666667 659.666666667 440 657.333333333 422 654 c 1
 422 98 l 1
EndSplineSet
EndChar

StartChar: C
Encoding: 67 67 108
Width: 1366
VWidth: 0
Flags: HW
LayerCount: 2
Back
Fore
SplineSet
1233 1387 m 1
 1264 926 l 1
 1233 926 l 1
 1191.66666667 1064 1132.66666667 1163.33333333 1056 1224 c 0
 979.333333333 1284.66666667 887.333333333 1315 780 1315 c 0
 690 1315 608.666666667 1292.16666667 536 1246.5 c 0
 463.333333333 1200.83333333 406.166666667 1128 364.5 1028 c 0
 322.833333333 928 302 803.666666667 302 655 c 0
 302 532.333333333 321.666666667 426 361 336 c 0
 400.333333333 246 459.5 177 538.5 129 c 0
 617.5 81 707.666666667 57 809 57 c 0
 897 57 974.666666667 75.8333333333 1042 113.5 c 0
 1109.33333333 151.166666667 1183.33333333 226 1264 338 c 1
 1295 318 l 1
 1227 197.333333333 1147.66666667 109 1057 53 c 0
 966.333333333 -3 858.666666667 -31 734 -31 c 0
 509.333333333 -31 335.333333333 52.3333333333 212 219 c 0
 120 343 74 489 74 657 c 0
 74 792.333333333 104.333333333 916.666666667 165 1030 c 0
 225.666666667 1143.33333333 309.166666667 1231.16666667 415.5 1293.5 c 0
 521.833333333 1355.83333333 638 1387 764 1387 c 0
 862 1387 958.666666667 1363 1054 1315 c 0
 1082 1300.33333333 1102 1293 1114 1293 c 0
 1132 1293 1147.66666667 1299.33333333 1161 1312 c 0
 1178.33333333 1330 1190.66666667 1355 1198 1387 c 1
 1233 1387 l 1
EndSplineSet
EndChar

StartChar: D
Encoding: 68 68 109
Width: 1479
VWidth: 0
Flags: HW
LayerCount: 2
Back
Fore
SplineSet
35 0 m 1
 35 37 l 1
 86 37 l 2
 143.333333333 37 184 55.3333333333 208 92 c 0
 222.666666667 114 230 163.333333333 230 240 c 2
 230 1116 l 2
 230 1200.66666667 220.666666667 1253.66666667 202 1275 c 0
 176 1304.33333333 137.333333333 1319 86 1319 c 2
 35 1319 l 1
 35 1356 l 1
 587 1356 l 2
 789.666666667 1356 943.833333333 1333 1049.5 1287 c 0
 1155.16666667 1241 1240.16666667 1164.33333333 1304.5 1057 c 0
 1368.83333333 949.666666667 1401 825.666666667 1401 685 c 0
 1401 496.333333333 1343.66666667 338.666666667 1229 212 c 0
 1100.33333333 70.6666666667 904.333333333 0 641 0 c 2
 35 0 l 1
422 98 m 1
 506.666666667 79.3333333333 577.666666667 70 635 70 c 0
 789.666666667 70 918 124.333333333 1020 233 c 0
 1122 341.666666667 1173 489 1173 675 c 0
 1173 862.333333333 1122 1010 1020 1118 c 0
 918 1226 787 1280 627 1280 c 0
 567 1280 498.666666667 1270.33333333 422 1251 c 1
 422 98 l 1
EndSplineSet
EndChar

StartChar: E
Encoding: 69 69 110
Width: 1251
VWidth: 0
Flags: HW
LayerCount: 2
Back
Fore
SplineSet
428 1282 m 1
 428 746 l 1
 726 746 l 2
 803.333333333 746 855 757.666666667 881 781 c 0
 915.666666667 811.666666667 935 865.666666667 939 943 c 1
 976 943 l 1
 976 471 l 1
 939 471 l 1
 929.666666667 537 920.333333333 579.333333333 911 598 c 0
 899 621.333333333 879.333333333 639.666666667 852 653 c 0
 824.666666667 666.333333333 782.666666667 673 726 673 c 2
 428 673 l 1
 428 226 l 2
 428 166 430.666666667 129.5 436 116.5 c 0
 441.333333333 103.5 450.666666667 93.1666666667 464 85.5 c 0
 477.333333333 77.8333333333 502.666666667 74 540 74 c 2
 770 74 l 2
 846.666666667 74 902.333333333 79.3333333333 937 90 c 0
 971.666666667 100.666666667 1005 121.666666667 1037 153 c 0
 1078.33333333 194.333333333 1120.66666667 256.666666667 1164 340 c 1
 1204 340 l 1
 1087 0 l 1
 42 0 l 1
 42 37 l 1
 90 37 l 2
 122 37 152.333333333 44.6666666667 181 60 c 0
 202.333333333 70.6666666667 216.833333333 86.6666666667 224.5 108 c 0
 232.166666667 129.333333333 236 173 236 239 c 2
 236 1120 l 2
 236 1206 227.333333333 1259 210 1279 c 0
 186 1305.66666667 146 1319 90 1319 c 2
 42 1319 l 1
 42 1356 l 1
 1087 1356 l 1
 1102 1059 l 1
 1063 1059 l 1
 1049 1130.33333333 1033.5 1179.33333333 1016.5 1206 c 0
 999.5 1232.66666667 974.333333333 1253 941 1267 c 0
 914.333333333 1277 867.333333333 1282 800 1282 c 2
 428 1282 l 1
EndSplineSet
EndChar

StartChar: F
Encoding: 70 70 111
Width: 1139
VWidth: 0
Flags: HW
LayerCount: 2
Back
Fore
SplineSet
419 1282 m 1
 419 749 l 1
 666 749 l 2
 722.666666667 749 764.166666667 761.5 790.5 786.5 c 0
 816.833333333 811.5 834.333333333 861 843 935 c 1
 880 935 l 1
 880 476 l 1
 843 476 l 1
 842.333333333 528.666666667 835.5 567.333333333 822.5 592 c 0
 809.5 616.666666667 791.5 635.166666667 768.5 647.5 c 0
 745.5 659.833333333 711.333333333 666 666 666 c 2
 419 666 l 1
 419 240 l 2
 419 171.333333333 423.333333333 126 432 104 c 0
 438.666666667 87.3333333333 452.666666667 73 474 61 c 0
 503.333333333 45 534 37 566 37 c 2
 615 37 l 1
 615 0 l 1
 33 0 l 1
 33 37 l 1
 81 37 l 2
 137 37 177.666666667 53.3333333333 203 86 c 0
 219 107.333333333 227 158.666666667 227 240 c 2
 227 1116 l 2
 227 1184.66666667 222.666666667 1230 214 1252 c 0
 207.333333333 1268.66666667 193.666666667 1283 173 1295 c 0
 144.333333333 1311 113.666666667 1319 81 1319 c 2
 33 1319 l 1
 33 1356 l 1
 1042 1356 l 1
 1055 1058 l 1
 1020 1058 l 1
 1002.66666667 1121.33333333 982.5 1167.83333333 959.5 1197.5 c 0
 936.5 1227.16666667 908.166666667 1248.66666667 874.5 1262 c 0
 840.833333333 1275.33333333 788.666666667 1282 718 1282 c 2
 419 1282 l 1
EndSplineSet
EndChar

StartChar: H
Encoding: 72 72 112
Width: 1479
VWidth: 0
Flags: HW
LayerCount: 2
Back
Fore
SplineSet
421 727 m 1
 1051 727 l 1
 1051 1115 l 2
 1051 1184.33333333 1046.66666667 1230 1038 1252 c 0
 1031.33333333 1268.66666667 1017.33333333 1283 996 1295 c 0
 967.333333333 1311 937 1319 905 1319 c 2
 857 1319 l 1
 857 1356 l 1
 1437 1356 l 1
 1437 1319 l 1
 1389 1319 l 2
 1357 1319 1326.66666667 1311.33333333 1298 1296 c 0
 1276.66666667 1285.33333333 1262.16666667 1269.16666667 1254.5 1247.5 c 0
 1246.83333333 1225.83333333 1243 1181.66666667 1243 1115 c 2
 1243 240 l 2
 1243 171.333333333 1247.33333333 126 1256 104 c 0
 1262.66666667 87.3333333333 1276.33333333 73 1297 61 c 0
 1326.33333333 45 1357 37 1389 37 c 2
 1437 37 l 1
 1437 0 l 1
 857 0 l 1
 857 37 l 1
 905 37 l 2
 960.333333333 37 1000.66666667 53.3333333333 1026 86 c 0
 1042.66666667 107.333333333 1051 158.666666667 1051 240 c 2
 1051 653 l 1
 421 653 l 1
 421 240 l 2
 421 171.333333333 425.333333333 126 434 104 c 0
 440.666666667 87.3333333333 454.666666667 73 476 61 c 0
 504.666666667 45 535 37 567 37 c 2
 616 37 l 1
 616 0 l 1
 35 0 l 1
 35 37 l 1
 83 37 l 2
 139 37 179.666666667 53.3333333333 205 86 c 0
 221 107.333333333 229 158.666666667 229 240 c 2
 229 1115 l 2
 229 1184.33333333 224.666666667 1230 216 1252 c 0
 209.333333333 1268.66666667 195.666666667 1283 175 1295 c 0
 145.666666667 1311 115 1319 83 1319 c 2
 35 1319 l 1
 35 1356 l 1
 616 1356 l 1
 616 1319 l 1
 567 1319 l 2
 535 1319 504.666666667 1311.33333333 476 1296 c 0
 455.333333333 1285.33333333 441 1269.16666667 433 1247.5 c 0
 425 1225.83333333 421 1181.66666667 421 1115 c 2
 421 727 l 1
EndSplineSet
EndChar

StartChar: G
Encoding: 71 71 113
Width: 1479
VWidth: 0
Flags: HW
LayerCount: 2
Back
Fore
SplineSet
1257 1387 m 1
 1292 959 l 1
 1257 959 l 1
 1221.66666667 1065.66666667 1176 1146 1120 1200 c 0
 1039.33333333 1278 935.666666667 1317 809 1317 c 0
 636.333333333 1317 505 1248.66666667 415 1112 c 0
 339.666666667 996.666666667 302 859.333333333 302 700 c 0
 302 570.666666667 327 452.666666667 377 346 c 0
 427 239.333333333 492.5 161.166666667 573.5 111.5 c 0
 654.5 61.8333333333 737.666666667 37 823 37 c 0
 873 37 921.333333333 43.3333333333 968 56 c 0
 1014.66666667 68.6666666667 1059.66666667 87.3333333333 1103 112 c 1
 1103 504 l 2
 1103 572 1097.83333333 616.5 1087.5 637.5 c 0
 1077.16666667 658.5 1061.16666667 674.5 1039.5 685.5 c 0
 1017.83333333 696.5 979.666666667 702 925 702 c 1
 925 740 l 1
 1450 740 l 1
 1450 702 l 1
 1425 702 l 2
 1373 702 1337.33333333 684.666666667 1318 650 c 0
 1304.66666667 625.333333333 1298 576.666666667 1298 504 c 2
 1298 89 l 1
 1221.33333333 47.6666666667 1145.66666667 17.3333333333 1071 -2 c 0
 996.333333333 -21.3333333333 913.333333333 -31 822 -31 c 0
 560 -31 361 53 225 221 c 0
 123 347 72 492.333333333 72 657 c 0
 72 776.333333333 100.666666667 890.666666667 158 1000 c 0
 226 1130 319.333333333 1230 438 1300 c 0
 537.333333333 1358 654.666666667 1387 790 1387 c 0
 839.333333333 1387 884.166666667 1383 924.5 1375 c 0
 964.833333333 1367 1022 1349.33333333 1096 1322 c 0
 1133.33333333 1308 1158.33333333 1301 1171 1301 c 0
 1183.66666667 1301 1194.5 1306.83333333 1203.5 1318.5 c 0
 1212.5 1330.16666667 1218 1353 1220 1387 c 1
 1257 1387 l 1
EndSplineSet
EndChar

StartChar: I
Encoding: 73 73 114
Width: 682
VWidth: 0
Flags: HW
LayerCount: 2
Back
Fore
SplineSet
632 37 m 1
 632 0 l 1
 51 0 l 1
 51 37 l 1
 99 37 l 2
 155 37 195.666666667 53.3333333333 221 86 c 0
 237 107.333333333 245 158.666666667 245 240 c 2
 245 1116 l 2
 245 1184.66666667 240.666666667 1230 232 1252 c 0
 225.333333333 1268.66666667 211.666666667 1283 191 1295 c 0
 161.666666667 1311 131 1319 99 1319 c 2
 51 1319 l 1
 51 1356 l 1
 632 1356 l 1
 632 1319 l 1
 583 1319 l 2
 527.666666667 1319 487.333333333 1302.66666667 462 1270 c 0
 445.333333333 1248.66666667 437 1197.33333333 437 1116 c 2
 437 240 l 2
 437 171.333333333 441.333333333 126 450 104 c 0
 456.666666667 87.3333333333 470.666666667 73 492 61 c 0
 520.666666667 45 551 37 583 37 c 2
 632 37 l 1
EndSplineSet
EndChar

StartChar: J
Encoding: 74 74 115
Width: 797
VWidth: 0
Flags: HW
LayerCount: 2
Back
Fore
SplineSet
204 1319 m 1
 204 1356 l 1
 785 1356 l 1
 785 1319 l 1
 736 1319 l 2
 680.666666667 1319 640.333333333 1302.66666667 615 1270 c 0
 599 1248.66666667 591 1197.33333333 591 1116 c 2
 591 453 l 2
 591 351 579.833333333 268.333333333 557.5 205 c 0
 535.166666667 141.666666667 496.666666667 86.5 442 39.5 c 0
 387.333333333 -7.5 321.333333333 -31 244 -31 c 0
 181.333333333 -31 132 -15.5 96 15.5 c 0
 60 46.5 42 82 42 122 c 0
 42 154.666666667 50.3333333333 179.333333333 67 196 c 0
 89 216.666666667 114.666666667 227 144 227 c 0
 165.333333333 227 184.5 220 201.5 206 c 0
 218.5 192 240 154.666666667 266 94 c 0
 281.333333333 58 301 40 325 40 c 0
 343 40 359.833333333 51 375.5 73 c 0
 391.166666667 95 399 134 399 190 c 2
 399 1116 l 2
 399 1184.66666667 394.666666667 1230 386 1252 c 0
 379.333333333 1268.66666667 365.333333333 1283 344 1295 c 0
 315.333333333 1311 285 1319 253 1319 c 2
 204 1319 l 1
EndSplineSet
EndChar

StartChar: K
Encoding: 75 75 116
Width: 1479
VWidth: 0
Flags: HW
LayerCount: 2
Back
Fore
SplineSet
612 752 m 1
 1112 255 l 2
 1194 173 1264 117.166666667 1322 87.5 c 0
 1380 57.8333333333 1438 41 1496 37 c 1
 1496 0 l 1
 851 0 l 1
 851 37 l 1
 889.666666667 37 917.5 43.5 934.5 56.5 c 0
 951.5 69.5 960 84 960 100 c 0
 960 116 956.833333333 130.333333333 950.5 143 c 0
 944.166666667 155.666666667 923.333333333 179.333333333 888 214 c 2
 420 677 l 1
 420 240 l 2
 420 171.333333333 424.333333333 126 433 104 c 0
 439.666666667 87.3333333333 453.666666667 73 475 61 c 0
 503.666666667 45 534 37 566 37 c 2
 612 37 l 1
 612 0 l 1
 34 0 l 1
 34 37 l 1
 82 37 l 2
 138 37 178.666666667 53.3333333333 204 86 c 0
 220 107.333333333 228 158.666666667 228 240 c 2
 228 1116 l 2
 228 1184.66666667 223.666666667 1230.33333333 215 1253 c 0
 208.333333333 1269 194.666666667 1283 174 1295 c 0
 144.666666667 1311 114 1319 82 1319 c 2
 34 1319 l 1
 34 1356 l 1
 612 1356 l 1
 612 1319 l 1
 566 1319 l 2
 534.666666667 1319 504.333333333 1311.33333333 475 1296 c 0
 454.333333333 1285.33333333 440 1269.33333333 432 1248 c 0
 424 1226.66666667 420 1182.66666667 420 1116 c 2
 420 701 l 1
 433.333333333 713.666666667 479 756 557 828 c 0
 755 1009.33333333 874.666666667 1130.33333333 916 1191 c 0
 934 1217.66666667 943 1241 943 1261 c 0
 943 1276.33333333 936 1289.83333333 922 1301.5 c 0
 908 1313.16666667 884.333333333 1319 851 1319 c 2
 820 1319 l 1
 820 1356 l 1
 1318 1356 l 1
 1318 1319 l 1
 1288.66666667 1318.33333333 1262 1314.33333333 1238 1307 c 0
 1214 1299.66666667 1184.66666667 1285.5 1150 1264.5 c 0
 1115.33333333 1243.5 1072.66666667 1209.66666667 1022 1163 c 0
 1007.33333333 1149.66666667 939.666666667 1081.33333333 819 958 c 2
 612 752 l 1
EndSplineSet
EndChar

StartChar: L
Encoding: 76 76 117
Width: 1251
VWidth: 0
Flags: HW
LayerCount: 2
Back
Fore
SplineSet
1174 375 m 1
 1207 368 l 1
 1091 0 l 1
 41 0 l 1
 41 37 l 1
 92 37 l 2
 149.333333333 37 190.333333333 55.6666666667 215 93 c 0
 229 114.333333333 236 163.666666667 236 241 c 2
 236 1116 l 2
 236 1200.66666667 226.666666667 1253.66666667 208 1275 c 0
 182 1304.33333333 143.333333333 1319 92 1319 c 2
 41 1319 l 1
 41 1356 l 1
 655 1356 l 1
 655 1319 l 1
 583 1319.66666667 532.5 1313 503.5 1299 c 0
 474.5 1285 454.666666667 1267.33333333 444 1246 c 0
 433.333333333 1224.66666667 428 1173.66666667 428 1093 c 2
 428 241 l 2
 428 185.666666667 433.333333333 147.666666667 444 127 c 0
 452 113 464.333333333 102.666666667 481 96 c 0
 497.666666667 89.3333333333 549.666666667 86 637 86 c 2
 736 86 l 2
 840 86 913 93.6666666667 955 109 c 0
 997 124.333333333 1035.33333333 151.5 1070 190.5 c 0
 1104.66666667 229.5 1139.33333333 291 1174 375 c 1
EndSplineSet
EndChar

StartChar: M
Encoding: 77 77 118
Width: 1821
VWidth: 0
Flags: HW
LayerCount: 2
Back
Fore
SplineSet
838 0 m 1
 314 1141 l 1
 314 235 l 2
 314 151.666666667 323 99.6666666667 341 79 c 0
 365.666666667 51 404.666666667 37 458 37 c 2
 506 37 l 1
 506 0 l 1
 34 0 l 1
 34 37 l 1
 82 37 l 2
 139.333333333 37 180 54.3333333333 204 89 c 0
 218.666666667 110.333333333 226 159 226 235 c 2
 226 1121 l 2
 226 1181 219.333333333 1224.33333333 206 1251 c 0
 196.666666667 1270.33333333 179.5 1286.5 154.5 1299.5 c 0
 129.5 1312.5 89.3333333333 1319 34 1319 c 1
 34 1356 l 1
 418 1356 l 1
 910 295 l 1
 1394 1356 l 1
 1778 1356 l 1
 1778 1319 l 1
 1731 1319 l 2
 1673 1319 1632 1301.66666667 1608 1267 c 0
 1593.33333333 1245.66666667 1586 1197 1586 1121 c 2
 1586 235 l 2
 1586 151.666666667 1595.33333333 99.6666666667 1614 79 c 0
 1638.66666667 51 1677.66666667 37 1731 37 c 2
 1778 37 l 1
 1778 0 l 1
 1202 0 l 1
 1202 37 l 1
 1250 37 l 2
 1308 37 1348.66666667 54.3333333333 1372 89 c 0
 1386.66666667 110.333333333 1394 159 1394 235 c 2
 1394 1141 l 1
 871 0 l 1
 838 0 l 1
EndSplineSet
EndChar

StartChar: N
Encoding: 78 78 119
Width: 1479
VWidth: 0
Flags: HW
LayerCount: 2
Back
Fore
SplineSet
-27 1356 m 1
 341 1356 l 1
 1170 339 l 1
 1170 1121 l 2
 1170 1204.33333333 1160.66666667 1256.33333333 1142 1277 c 0
 1117.33333333 1305 1078.33333333 1319 1025 1319 c 2
 978 1319 l 1
 978 1356 l 1
 1450 1356 l 1
 1450 1319 l 1
 1402 1319 l 2
 1344.66666667 1319 1304 1301.66666667 1280 1267 c 0
 1265.33333333 1245.66666667 1258 1197 1258 1121 c 2
 1258 -22 l 1
 1222 -22 l 1
 328 1070 l 1
 328 235 l 2
 328 151.666666667 337 99.6666666667 355 79 c 0
 380.333333333 51 419.333333333 37 472 37 c 2
 520 37 l 1
 520 0 l 1
 48 0 l 1
 48 37 l 1
 95 37 l 2
 153 37 194 54.3333333333 218 89 c 0
 232.666666667 110.333333333 240 159 240 235 c 2
 240 1178 l 1
 200.666666667 1224 170.833333333 1254.33333333 150.5 1269 c 0
 130.166666667 1283.66666667 100.333333333 1297.33333333 61 1310 c 0
 41.6666666667 1316 12.3333333333 1319 -27 1319 c 1
 -27 1356 l 1
EndSplineSet
EndChar
